<?xml version="1.0" encoding="utf-8"?>
<!-- Generator: Adobe Illustrator 14.0.0, SVG Export Plug-In . SVG Version: 6.00 Build 43363)  -->
<!DOCTYPE svg PUBLIC "-//W3C//DTD SVG 1.1//EN" "http://www.w3.org/Graphics/SVG/1.1/DTD/svg11.dtd">
<svg version="1.1" id="Layer_1" xmlns="http://www.w3.org/2000/svg" xmlns:xlink="http://www.w3.org/1999/xlink" x="0px" y="0px"
	 width="1333.093px" height="296.984px" viewBox="0 0 1333.093 296.984" enable-background="new 0 0 1333.093 296.984"
	 xml:space="preserve">
<line fill="none" stroke="#EF4836" stroke-width="10" stroke-dasharray="5,5" x1="177.403" y1="201.94" x2="219.577" y2="174.93"/>
<path d="M1068.121,164.939H949.804V35.728h97.021l20.977,26.729L1068.121,164.939L1068.121,164.939z M957.804,156.939h102.291
	l-0.287-91.707l-16.873-21.505h-85.131V156.939L957.804,156.939z"/>
<rect x="974.578" y="93.482" fill="none" width="110.303" height="121.21"/>
<rect x="974.578" y="93.483" fill="#FFFFFF" width="110.303" height="121.213"/>
<polygon fill="#EF4836" points="942.744,137.728 919.33,137.728 919.33,147.728 942.744,147.728 942.744,153.169 967.576,142.727 
	942.744,132.286 "/>
<polygon fill="#EF4836" points="921.597,76.728 946.429,66.286 921.597,55.844 921.597,61.286 898.183,61.286 898.183,71.286 
	921.597,71.286 "/>
<polygon fill="#EF4836" points="1117.453,61.286 1097.039,61.286 1097.039,55.844 1072.207,66.286 1097.039,76.728 1097.039,71.286 
	1117.453,71.286 "/>
<path fill="#EF4836" d="M323.963,167.349H291.55c-4.285,0-7.771-3.485-7.771-7.771s3.486-7.771,7.771-7.771h20.33v-10h-20.33
	c-9.799,0-17.771,7.974-17.771,17.771s7.972,17.771,17.771,17.771h32.414v5.441l24.833-10.441l-24.833-10.44L323.963,167.349
	L323.963,167.349z"/>
<path fill="#EF4836" d="M74.652,101.73c0,9.799,7.972,17.771,17.771,17.771h4.914v5.441l24.832-10.441l-24.832-10.44v5.44h-4.914
	c-4.285,0-7.771-3.485-7.771-7.771c0-4.285,3.486-7.771,7.771-7.771h35.33v-10h-35.33C82.625,83.959,74.652,91.932,74.652,101.73z"
	/>
<rect x="173.683" y="125.659" transform="matrix(-0.8395 -0.5433 0.5433 -0.8395 294.4043 348.2705)" fill="#EF4836" width="49.902" height="9.999"/>
<line fill="none" stroke="#000000" stroke-width="5" stroke-miterlimit="10" x1="1083.496" y1="211.897" x2="1084.576" y2="214.695"/>
<path d="M39.067,141.541c-19.954,0-35.585-7.629-35.585-17.368V74.462h8v49.711c0,2.183,8.599,9.368,27.585,9.368
	c18.986,0,27.585-7.188,27.585-9.368V74.462h8v49.711C74.652,133.912,59.021,141.541,39.067,141.541L39.067,141.541z"/>
<path d="M39.067,89.269c-21.95,0-35.585-5.673-35.585-14.808c0-9.134,13.635-14.807,35.585-14.807
	c21.95,0,35.585,5.674,35.585,14.807S61.017,89.269,39.067,89.269L39.067,89.269z M39.067,67.656
	c-20.687,0-27.585,5.365-27.585,6.807c0,1.44,6.898,6.808,27.585,6.808s27.585-5.365,27.585-6.808S59.754,67.656,39.067,67.656
	L39.067,67.656z"/>
<g>
	<path d="M150.521,234.977l-5.727-32.037h5.065l4.021,24.974l4.05-24.974h5.068l-5.83,32.037H150.521z"/>
</g>
<g>
	<path d="M243.213,176.318c-2.131,0-3.942-0.745-5.434-2.236c-1.492-1.491-2.237-3.294-2.237-5.407v-17.488
		c0-2.13,0.75-3.94,2.25-5.434c1.5-1.49,3.307-2.236,5.42-2.236c2.13,0,3.938,0.75,5.42,2.25c1.483,1.5,2.224,3.308,2.224,5.42
		v3.655h-5.011v-3.759c0-0.768-0.273-1.422-0.818-1.968c-0.546-0.546-1.202-0.818-1.969-0.818s-1.419,0.272-1.956,0.818
		s-0.806,1.201-0.806,1.968v17.54c0,0.768,0.269,1.419,0.806,1.956s1.189,0.806,1.956,0.806s1.423-0.269,1.969-0.806
		c0.545-0.537,0.818-1.188,0.818-1.956V164.2h5.011v4.475c0,2.132-0.75,3.938-2.25,5.421
		C247.106,175.577,245.31,176.318,243.213,176.318z"/>
</g>
<g>
	<path d="M36.491,118.344c0,2.114-0.819,3.922-2.458,5.421c-1.639,1.5-3.616,2.25-5.933,2.25h-8.39V93.953h8.391
		c2.335,0,4.317,0.75,5.947,2.25c1.629,1.5,2.444,3.298,2.444,5.396L36.491,118.344L36.491,118.344z M25.049,121.234h3.221
		c0.848,0,1.563-0.276,2.147-0.831c0.583-0.554,0.876-1.205,0.876-1.955v-16.772c0-0.767-0.297-1.423-0.89-1.969
		c-0.593-0.546-1.304-0.817-2.133-0.817h-3.221V121.234z"/>
	<path d="M40.164,126.016V93.953h7.995c2.109,0,4.012,0.503,5.707,1.508c1.45,0.854,2.486,2.173,3.108,3.963
		c0.339,0.955,0.508,2.089,0.508,3.4c0,2.147-0.631,3.869-1.893,5.165c-0.528,0.545-1.149,0.963-1.865,1.252
		c1.187,0.408,2.194,1.219,3.023,2.429c0.546,0.818,0.951,1.875,1.215,3.17c0.131,0.665,0.198,1.406,0.198,2.226
		c0,2.027-0.424,3.75-1.271,5.165c-0.66,1.107-1.592,1.995-2.797,2.659c-1.356,0.75-2.703,1.125-4.04,1.125h-9.888V126.016z
		 M45.927,107.044h2.232c1.657,0,2.769-0.731,3.333-2.199c0.207-0.545,0.311-1.219,0.311-2.02c0-1.33-0.358-2.335-1.074-3.018
		c-0.66-0.631-1.516-0.946-2.571-0.946h-2.232L45.927,107.044L45.927,107.044z M45.927,121.234h2.232
		c1.808,0,3.061-0.844,3.757-2.53c0.245-0.579,0.367-1.244,0.367-1.994c0-1.79-0.377-3.094-1.13-3.912
		c-0.678-0.75-1.677-1.125-2.995-1.125h-2.232L45.927,121.234L45.927,121.234z"/>
</g>
<g>
	<path d="M970.197,69.151v13.577h-4.832V50.69h4.832v13.604h5.83V50.69h4.832v32.037h-4.832V69.151H970.197z"/>
	<path d="M989.322,55.548h-5.141V50.69h15.086v4.857h-5.111v27.18h-4.834V55.548L989.322,55.548z"/>
	<path d="M1007.423,82.728h-4.832V50.665h6.938l4.502,23.032l4.322-23.032h6.662v32.062h-4.832V62.58l-4.191,20.147h-3.887
		l-4.682-20.098V82.728L1007.423,82.728z"/>
	<path d="M1041.505,82.728h-13.166V50.69h4.832V77.92h8.334V82.728z"/>
</g>
<g>
	<path d="M1134.351,83.137c-2.131,0-3.939-0.746-5.434-2.237c-1.492-1.49-2.236-3.294-2.236-5.407v-17.49
		c0-2.13,0.75-3.94,2.25-5.434c1.5-1.49,3.309-2.236,5.42-2.236c2.131,0,3.938,0.75,5.42,2.25c1.484,1.5,2.227,3.308,2.227,5.42
		v3.656h-5.012V57.9c0-0.768-0.271-1.423-0.818-1.969c-0.545-0.546-1.201-0.817-1.969-0.817s-1.418,0.271-1.955,0.817
		s-0.807,1.201-0.807,1.969v17.54c0,0.768,0.27,1.419,0.807,1.956s1.188,0.807,1.955,0.807s1.424-0.27,1.969-0.807
		c0.547-0.537,0.818-1.188,0.818-1.956v-4.423h5.012v4.476c0,2.131-0.75,3.938-2.25,5.42
		C1138.246,82.395,1136.447,83.137,1134.351,83.137z"/>
	<path d="M1161.298,74.75c0.035,2.232-0.545,4.143-1.738,5.728c-0.781,1.073-1.891,1.833-3.322,2.274
		c-0.768,0.239-1.66,0.357-2.686,0.357c-1.893,0-3.461-0.468-4.705-1.405c-1.039-0.768-1.859-1.812-2.467-3.132
		c-0.605-1.321-0.959-2.833-1.062-4.539l4.604-0.332c0.205,1.867,0.699,3.221,1.482,4.062c0.578,0.634,1.244,0.934,1.994,0.898
		c1.057-0.034,1.898-0.555,2.529-1.562c0.324-0.495,0.486-1.203,0.486-2.124c0-1.331-0.605-2.652-1.814-3.967
		c-0.955-0.903-2.387-2.261-4.297-4.068c-1.602-1.552-2.732-2.942-3.398-4.171c-0.717-1.382-1.074-2.884-1.074-4.504
		c0-2.917,0.979-5.127,2.939-6.628c1.211-0.904,2.711-1.355,4.5-1.355c1.723,0,3.195,0.383,4.424,1.149
		c0.953,0.597,1.727,1.433,2.312,2.506c0.588,1.073,0.943,2.311,1.062,3.707l-4.629,0.845c-0.137-1.312-0.512-2.336-1.125-3.068
		c-0.441-0.527-1.082-0.793-1.918-0.793c-0.885,0-1.559,0.394-2.02,1.177c-0.375,0.631-0.562,1.414-0.562,2.354
		c0,1.466,0.631,2.958,1.895,4.474c0.477,0.58,1.191,1.263,2.146,2.045c1.125,0.938,1.865,1.595,2.225,1.97
		c1.191,1.192,2.113,2.37,2.762,3.527c0.307,0.546,0.555,1.049,0.742,1.51C1161.044,72.824,1161.283,73.847,1161.298,74.75z"/>
	<path d="M1180.603,74.75c0.033,2.232-0.545,4.143-1.736,5.728c-0.785,1.073-1.895,1.833-3.324,2.274
		c-0.768,0.239-1.662,0.357-2.688,0.357c-1.891,0-3.459-0.468-4.701-1.405c-1.041-0.768-1.863-1.812-2.471-3.132
		c-0.604-1.321-0.957-2.833-1.061-4.539l4.604-0.332c0.203,1.867,0.697,3.221,1.482,4.062c0.578,0.634,1.244,0.934,1.994,0.898
		c1.057-0.034,1.898-0.555,2.531-1.562c0.322-0.495,0.484-1.203,0.484-2.124c0-1.331-0.604-2.652-1.814-3.967
		c-0.955-0.903-2.387-2.261-4.295-4.068c-1.605-1.552-2.736-2.942-3.4-4.171c-0.717-1.382-1.074-2.884-1.074-4.504
		c0-2.917,0.98-5.127,2.939-6.628c1.211-0.904,2.711-1.355,4.5-1.355c1.723,0,3.195,0.383,4.424,1.149
		c0.955,0.597,1.727,1.433,2.312,2.506c0.588,1.073,0.941,2.311,1.062,3.707l-4.629,0.845c-0.139-1.312-0.514-2.336-1.125-3.068
		c-0.443-0.527-1.082-0.793-1.918-0.793c-0.887,0-1.561,0.394-2.021,1.177c-0.375,0.631-0.561,1.414-0.561,2.354
		c0,1.466,0.629,2.958,1.891,4.474c0.48,0.58,1.193,1.263,2.148,2.045c1.125,0.938,1.865,1.595,2.225,1.97
		c1.193,1.192,2.113,2.37,2.762,3.527c0.309,0.546,0.553,1.049,0.74,1.51C1180.347,72.824,1180.585,73.847,1180.603,74.75z"/>
</g>
<g>
	<path d="M1002.552,129.057c0,2.113-0.74,3.921-2.225,5.42c-1.482,1.5-3.271,2.25-5.369,2.25h-7.594v-32.062h7.594
		c2.113,0,3.908,0.75,5.383,2.25c1.477,1.5,2.211,3.298,2.211,5.396V129.057z M992.197,131.946h2.916
		c0.766,0,1.414-0.276,1.941-0.83c0.527-0.555,0.791-1.206,0.791-1.956v-16.771c0-0.768-0.268-1.424-0.805-1.97
		c-0.537-0.545-1.18-0.817-1.93-0.817h-2.916L992.197,131.946L992.197,131.946z"/>
	<path d="M1013.521,104.282c2.131,0,3.939,0.75,5.434,2.25c1.492,1.5,2.238,3.307,2.238,5.42v17.487c0,2.131-0.752,3.941-2.25,5.435
		c-1.5,1.492-3.311,2.236-5.422,2.236c-2.133,0-3.938-0.75-5.422-2.25c-1.482-1.5-2.225-3.308-2.225-5.42v-17.487
		c0-2.131,0.75-3.942,2.25-5.435C1009.625,105.025,1011.423,104.282,1013.521,104.282z M1016.154,111.85
		c0-0.768-0.27-1.419-0.807-1.956s-1.188-0.806-1.957-0.806c-0.766,0-1.422,0.27-1.969,0.806c-0.545,0.537-0.816,1.188-0.816,1.956
		v17.54c0,0.768,0.271,1.419,0.816,1.956c0.547,0.536,1.203,0.806,1.969,0.806c0.77,0,1.42-0.27,1.957-0.806
		c0.537-0.537,0.807-1.188,0.807-1.956V111.85z"/>
	<path d="M1029.347,136.728h-4.832v-32.062h6.936l4.504,23.032l4.322-23.032h6.662v32.062h-4.832V116.58l-4.191,20.147h-3.887
		l-4.682-20.098V136.728z"/>
</g>
<path d="M1088.88,218.696H970.578V89.483h118.303V218.696L1088.88,218.696z M978.578,210.696h102.303V97.483H978.578V210.696
	L978.578,210.696z"/>
<line fill="none" stroke="#000000" stroke-width="5" stroke-miterlimit="10" x1="953.804" y1="160.939" x2="954.886" y2="163.739"/>
<path d="M969.263,207.884l-2.275-5.896l4.664-1.803l2.275,5.896L969.263,207.884L969.263,207.884z M965.087,197.073l-2.279-5.896
	l4.664-1.803l2.279,5.896L965.087,197.073L965.087,197.073z M960.91,186.261l-2.279-5.896l4.664-1.804l2.279,5.896L960.91,186.261
	L960.91,186.261z M956.732,175.451l-2.279-5.896l4.664-1.804l2.277,5.896L956.732,175.451L956.732,175.451z"/>
<line fill="none" stroke="#000000" stroke-width="5" stroke-miterlimit="10" x1="973.496" y1="211.897" x2="974.576" y2="214.695"/>
<line fill="none" stroke="#000000" stroke-width="5" stroke-miterlimit="10" x1="898.88" y1="160.939" x2="899.96" y2="163.739"/>
<line fill="none" stroke="#000000" stroke-width="5" stroke-miterlimit="10" x1="918.57" y1="211.897" x2="919.652" y2="214.695"/>
<g>
	<path d="M811.076,75.466c0,2.132-0.746,3.935-2.236,5.408c-1.492,1.476-3.295,2.211-5.408,2.211c-1.229,0-2.225-0.128-2.992-0.383
		l0.691-4.5c0.545,0.103,1.014,0.152,1.406,0.152c0.236,0.018,0.578,0.01,1.02-0.025c0.785-0.052,1.445-0.332,1.982-0.845
		c0.537-0.511,0.805-1.149,0.805-1.917V50.742h4.73L811.076,75.466L811.076,75.466z"/>
	<path d="M830.378,74.75c0.035,2.232-0.545,4.143-1.738,5.728c-0.781,1.073-1.891,1.833-3.322,2.274
		c-0.768,0.239-1.66,0.357-2.686,0.357c-1.893,0-3.461-0.468-4.705-1.405c-1.039-0.768-1.859-1.812-2.467-3.132
		c-0.604-1.321-0.959-2.833-1.061-4.539l4.602-0.332c0.205,1.867,0.699,3.221,1.482,4.062c0.58,0.634,1.244,0.934,1.994,0.898
		c1.057-0.034,1.898-0.555,2.529-1.562c0.324-0.495,0.486-1.203,0.486-2.124c0-1.331-0.604-2.652-1.814-3.967
		c-0.953-0.903-2.387-2.261-4.297-4.068c-1.602-1.552-2.732-2.942-3.398-4.171c-0.715-1.382-1.074-2.884-1.074-4.504
		c0-2.917,0.98-5.127,2.941-6.628c1.211-0.904,2.711-1.355,4.5-1.355c1.721,0,3.193,0.383,4.424,1.149
		c0.953,0.597,1.725,1.433,2.311,2.506c0.588,1.073,0.943,2.311,1.062,3.707l-4.627,0.845c-0.139-1.312-0.514-2.336-1.125-3.068
		c-0.443-0.527-1.084-0.793-1.918-0.793c-0.889,0-1.562,0.394-2.021,1.177c-0.375,0.631-0.562,1.414-0.562,2.354
		c0,1.466,0.631,2.958,1.893,4.474c0.479,0.58,1.193,1.263,2.148,2.045c1.125,0.938,1.863,1.595,2.223,1.97
		c1.193,1.192,2.115,2.37,2.762,3.527c0.309,0.546,0.557,1.049,0.742,1.51C830.125,72.824,830.363,73.847,830.378,74.75z"/>
</g>
<g>
	<path d="M903.195,164.939H784.88V35.728h97.02l20.977,26.729L903.195,164.939L903.195,164.939z M792.88,156.939h102.289
		l-0.285-91.707l-16.875-21.504H792.88V156.939L792.88,156.939z"/>
	<rect x="809.652" y="93.482" fill="none" width="110.303" height="121.21"/>
	<rect x="809.652" y="93.483" fill="#FFFFFF" width="110.303" height="121.213"/>
</g>
<g>
	<path d="M828.646,129.365l-1.176,7.363h-5.031l5.445-32.037h6.648l5.369,32.037h-5.082l-1.131-7.363H828.646z M831.183,112.029
		l-1.789,12.631h3.58L831.183,112.029z"/>
	<path d="M850.845,104.69c2.355,0,4.23,0.742,5.625,2.226c1.295,1.415,1.943,3.223,1.943,5.42v4.652
		c0,2.114-0.736,3.922-2.211,5.421c-1.477,1.5-3.26,2.25-5.357,2.25h-2.787v12.067h-4.832V104.69H850.845z M853.736,112.412
		c0-0.835-0.252-1.509-0.756-2.021s-1.174-0.768-2.008-0.768h-2.916v10.252h2.916c0.768,0,1.418-0.271,1.955-0.817
		s0.809-1.202,0.809-1.97V112.412z"/>
	<path d="M869.357,104.69c2.352,0,4.227,0.742,5.625,2.226c1.295,1.415,1.941,3.223,1.941,5.42v4.652
		c0,2.114-0.736,3.922-2.213,5.421c-1.475,1.5-3.26,2.25-5.354,2.25h-2.787v12.067h-4.832V104.69H869.357z M872.246,112.412
		c0-0.835-0.252-1.509-0.754-2.021c-0.504-0.512-1.172-0.768-2.008-0.768h-2.914v10.252h2.914c0.768,0,1.42-0.271,1.955-0.817
		c0.537-0.546,0.807-1.202,0.807-1.97V112.412z"/>
</g>
<g>
	<polygon points="787.628,164.639 786.548,161.84 791.212,160.039 792.292,162.838 	"/>
	<path d="M804.339,207.884l-2.279-5.896l4.664-1.803l2.279,5.896L804.339,207.884L804.339,207.884z M800.162,197.073l-2.279-5.896
		l4.664-1.803l2.279,5.896L800.162,197.073L800.162,197.073z M795.984,186.261l-2.277-5.896l4.664-1.804l2.277,5.896
		L795.984,186.261L795.984,186.261z M791.806,175.451l-2.275-5.896l4.664-1.804l2.275,5.896L791.806,175.451L791.806,175.451z"/>
	<polygon points="807.32,215.597 806.238,212.799 810.902,210.996 811.984,213.794 	"/>
</g>
<g>
	<path d="M951.609,249.244h3.6l-15.588,33.407h-3.602L951.609,249.244z"/>
	<path d="M960.537,275.992c-1.801-1.823-2.699-4.225-2.699-7.199c0-2.978,0.922-5.353,2.771-7.129
		c1.848-1.774,4.049-2.664,6.604-2.664c2.557,0,4.613,1.08,6.174,3.24v-10.513h4.033v26.712h-4.033v-2.88
		c-1.486,2.111-3.658,3.168-6.516,3.168C964.449,278.729,962.337,277.816,960.537,275.992z M961.869,268.955
		c0,1.836,0.588,3.33,1.764,4.48s2.559,1.729,4.143,1.729s2.928-0.581,4.029-1.746c1.105-1.164,1.656-2.657,1.656-4.48
		c0-1.822-0.553-3.35-1.656-4.571c-1.104-1.225-2.461-1.837-4.066-1.837c-1.607,0-2.988,0.612-4.141,1.837
		C962.445,265.588,961.869,267.119,961.869,268.955z"/>
	<path d="M1001.072,270.629H986.06c0.098,1.393,0.732,2.515,1.908,3.365c1.176,0.854,2.521,1.277,4.031,1.277
		c2.4,0,4.225-0.756,5.473-2.27l2.307,2.521c-2.064,2.137-4.752,3.204-8.064,3.204c-2.688,0-4.975-0.896-6.857-2.683
		c-1.885-1.788-2.824-4.188-2.824-7.201c0-3.011,0.959-5.403,2.879-7.182c1.92-1.775,4.182-2.664,6.787-2.664
		c2.604,0,4.814,0.787,6.641,2.357c1.824,1.571,2.736,3.737,2.736,6.498v2.773h-0.004V270.629z M986.06,267.461h10.98
		c0-1.606-0.504-2.845-1.512-3.709c-1.012-0.862-2.25-1.295-3.729-1.295c-1.477,0-2.803,0.449-3.979,1.351
		C986.646,264.707,986.06,265.925,986.06,267.461z"/>
	<path d="M1023.32,270.629h-15.014c0.098,1.393,0.732,2.515,1.908,3.365c1.176,0.854,2.521,1.277,4.031,1.277
		c2.398,0,4.225-0.756,5.473-2.27l2.307,2.521c-2.064,2.137-4.754,3.204-8.064,3.204c-2.688,0-4.975-0.896-6.859-2.683
		c-1.883-1.788-2.822-4.188-2.822-7.201c0-3.011,0.959-5.403,2.879-7.182c1.92-1.775,4.182-2.664,6.787-2.664
		c2.604,0,4.814,0.787,6.641,2.357c1.824,1.571,2.736,3.737,2.736,6.498L1023.32,270.629L1023.32,270.629z M1008.308,267.461h10.98
		c0-1.606-0.504-2.845-1.512-3.709c-1.012-0.862-2.25-1.295-3.729-1.295c-1.477,0-2.803,0.449-3.979,1.351
		C1008.896,264.707,1008.308,265.925,1008.308,267.461z"/>
	<path d="M1038.007,259c2.568,0,4.766,0.89,6.588,2.664c1.824,1.776,2.736,4.142,2.736,7.092c0,2.953-0.906,5.354-2.717,7.201
		c-1.812,1.849-3.924,2.771-6.336,2.771s-4.578-1.057-6.498-3.168v9.862h-4.033v-26.135h4.033v3.348
		C1033.365,260.213,1035.439,259,1038.007,259z M1031.708,268.9c0,1.824,0.551,3.317,1.656,4.481
		c1.104,1.164,2.447,1.746,4.031,1.746s2.963-0.576,4.141-1.729c1.176-1.151,1.764-2.646,1.764-4.481s-0.576-3.358-1.729-4.571
		c-1.152-1.212-2.531-1.817-4.143-1.817c-1.605,0-2.963,0.605-4.064,1.817C1032.259,265.559,1031.708,267.076,1031.708,268.9z"/>
	<path d="M1051.615,269.584v-3.778h11.953v3.778H1051.615z"/>
	<path d="M1073.109,278.44h-4.033v-26.712h4.033V278.44z"/>
	<path d="M1079.191,255.473c-0.504-0.505-0.756-1.104-0.756-1.802c0-0.694,0.252-1.295,0.756-1.799s1.104-0.757,1.801-0.757
		c0.695,0,1.295,0.253,1.799,0.757c0.506,0.504,0.758,1.104,0.758,1.799c0,0.697-0.252,1.297-0.758,1.802
		c-0.504,0.504-1.104,0.756-1.799,0.756C1080.294,256.229,1079.695,255.977,1079.191,255.473z M1082.972,278.44h-4.031v-19.15h4.031
		V278.44z"/>
	<path d="M1092.835,268.073v10.367h-4.033v-19.15h4.033v3.491c0.646-1.176,1.541-2.101,2.682-2.772
		c1.141-0.671,2.369-1.008,3.689-1.008c2.16,0,3.906,0.66,5.238,1.979s1.998,3.229,1.998,5.726v11.734h-4.031v-10.514
		c0-3.526-1.465-5.29-4.395-5.29c-1.393,0-2.604,0.462-3.637,1.386C1093.351,264.948,1092.835,266.297,1092.835,268.073z"/>
	<path d="M1116.091,278.44h-4.033v-26.712h4.033v15.694l7.775-8.135h5.184l-7.27,7.596l7.811,11.557h-4.895l-5.689-8.389
		l-2.916,2.951V278.44L1116.091,278.44z"/>
</g>
<path d="M153.949,249.49c-17.802,0-32.285-14.483-32.285-32.285c0-17.803,14.483-32.285,32.285-32.285
	c17.802,0,32.285,14.482,32.285,32.285C186.234,235.007,171.751,249.49,153.949,249.49L153.949,249.49z M153.949,192.92
	c-13.391,0-24.285,10.896-24.285,24.285s10.894,24.285,24.285,24.285c13.391,0,24.285-10.896,24.285-24.285
	C178.234,203.815,167.34,192.92,153.949,192.92L153.949,192.92z"/>
<path d="M243.329,191.862c-17.802,0-32.285-14.482-32.285-32.284c0-17.803,14.483-32.285,32.285-32.285
	c17.802,0,32.285,14.482,32.285,32.285C275.614,177.379,261.131,191.862,243.329,191.862L243.329,191.862z M243.329,135.292
	c-13.391,0-24.285,10.895-24.285,24.285s10.894,24.284,24.285,24.284s24.285-10.896,24.285-24.284
	C267.614,146.187,256.72,135.292,243.329,135.292L243.329,135.292z"/>
<g>
	<path d="M147.626,116.502h-4.832V84.44h6.935l4.503,23.032l4.323-23.032h6.662v32.062h-4.833V96.354l-4.193,20.147h-3.886
		l-4.68-20.097L147.626,116.502L147.626,116.502z"/>
</g>
<path d="M153.949,134.016c-17.802,0-32.285-14.482-32.285-32.285c0-17.802,14.483-32.285,32.285-32.285
	c17.802,0,32.285,14.483,32.285,32.285S171.751,134.016,153.949,134.016L153.949,134.016z M153.949,77.446
	c-13.391,0-24.285,10.895-24.285,24.285c0,13.392,10.894,24.285,24.285,24.285c13.391,0,24.285-10.895,24.285-24.285
	C178.234,88.34,167.34,77.446,153.949,77.446L153.949,77.446z"/>
<path d="M1229.408,164.939h-118.314V35.728h97.021l20.975,26.729L1229.408,164.939L1229.408,164.939z M1119.093,156.939h102.289
	l-0.285-91.707l-16.875-21.505h-85.129V156.939L1119.093,156.939z"/>
<g>
	<path d="M333.559,126.381h3.602l-15.588,33.408h-3.602L333.559,126.381z"/>
	<path d="M351.054,140.205c-1.992,0-3.492,0.647-4.5,1.943s-1.512,3.037-1.512,5.221v8.208h-4.032v-19.152h4.032v3.853
		c0.648-1.199,1.53-2.185,2.646-2.951c1.116-0.769,2.299-1.164,3.548-1.188l0.034,4.067
		C351.198,140.205,351.126,140.205,351.054,140.205z"/>
	<path d="M371.322,153.003c-1.92,1.908-4.32,2.862-7.2,2.862s-5.28-0.954-7.2-2.862c-1.92-1.906-2.88-4.242-2.88-7.002
		c0-2.759,0.96-5.094,2.88-7.002s4.32-2.861,7.2-2.861s5.28,0.953,7.2,2.861s2.88,4.243,2.88,7.002
		C374.202,148.76,373.242,151.096,371.322,153.003z M359.784,150.52c1.14,1.164,2.586,1.746,4.338,1.746s3.198-0.582,4.338-1.746
		s1.71-2.67,1.71-4.52c0-1.849-0.57-3.354-1.71-4.519c-1.141-1.164-2.586-1.746-4.338-1.746s-3.198,0.582-4.338,1.746
		c-1.142,1.165-1.71,2.67-1.71,4.519C358.074,147.85,358.644,149.355,359.784,150.52z"/>
	<path d="M392.166,146.793v-10.368h4.032v19.152h-4.032v-3.492c-0.648,1.177-1.542,2.102-2.682,2.771
		c-1.142,0.672-2.37,1.009-3.69,1.009c-2.16,0-3.906-0.66-5.238-1.98c-1.332-1.318-1.998-3.227-1.998-5.724v-11.736h4.032v10.513
		c0,3.527,1.464,5.292,4.394,5.292c1.392,0,2.604-0.461,3.636-1.386C391.651,149.92,392.166,148.569,392.166,146.793z"/>
	<path d="M406.997,139.665v9.72c0,0.912,0.24,1.639,0.72,2.178c0.48,0.541,1.152,0.812,2.018,0.812c0.862,0,1.69-0.42,2.482-1.26
		l1.656,2.844c-1.416,1.271-2.982,1.908-4.698,1.908s-3.18-0.595-4.392-1.782s-1.818-2.79-1.818-4.807v-9.611h-2.412v-3.24h2.412
		v-6.012h4.032v6.012h5.04v3.24L406.997,139.665L406.997,139.665z"/>
	<path d="M434.897,147.765h-15.014c0.098,1.393,0.732,2.514,1.908,3.365c1.176,0.853,2.52,1.278,4.032,1.278
		c2.397,0,4.224-0.757,5.472-2.27l2.304,2.521c-2.062,2.136-4.752,3.204-8.062,3.204c-2.688,0-4.975-0.896-6.858-2.683
		c-1.884-1.788-2.825-4.188-2.825-7.201c0-3.012,0.96-5.404,2.881-7.183c1.92-1.775,4.182-2.664,6.785-2.664
		s4.817,0.786,6.643,2.358c1.824,1.571,2.736,3.737,2.736,6.498L434.897,147.765L434.897,147.765z M419.885,144.597h10.98
		c0-1.606-0.504-2.845-1.512-3.708c-1.01-0.864-2.25-1.297-3.728-1.297c-1.476,0-2.802,0.45-3.978,1.351
		C420.473,141.843,419.885,143.062,419.885,144.597z"/>
</g>
<g>
	<path d="M711.156,153.719h-3.672v-2.557c-1.584,1.896-3.709,2.845-6.373,2.845c-1.992,0-3.643-0.562-4.949-1.691
		c-1.309-1.127-1.963-2.633-1.963-4.519c0-1.884,0.695-3.294,2.09-4.229c1.391-0.937,3.275-1.403,5.65-1.403h5.221v-0.721
		c0-2.544-1.416-3.815-4.248-3.815c-1.775,0-3.625,0.647-5.545,1.943l-1.799-2.521c2.326-1.848,4.967-2.771,7.92-2.771
		c2.256,0,4.098,0.57,5.523,1.711c1.43,1.14,2.145,2.934,2.145,5.382V153.719z M707.125,146.591v-1.619h-4.537
		c-2.904,0-4.354,0.912-4.354,2.735c0,0.937,0.357,1.649,1.08,2.143c0.719,0.491,1.721,0.737,3.006,0.737
		c1.281,0,2.404-0.359,3.363-1.08C706.644,148.787,707.125,147.815,707.125,146.591z"/>
	<path d="M716.771,154.619v-20.053h4.031v20.196c0,2.018-0.605,3.617-1.816,4.806c-1.213,1.188-2.678,1.782-4.395,1.782
		c-1.715,0-3.281-0.637-4.697-1.907l1.871-3.023c0.816,0.792,1.641,1.188,2.469,1.188c0.826,0,1.457-0.267,1.889-0.793
		C716.556,156.287,716.771,155.555,716.771,154.619z M716.951,130.751c-0.504-0.504-0.756-1.104-0.756-1.8s0.252-1.296,0.756-1.801
		c0.504-0.504,1.104-0.756,1.801-0.756c0.695,0,1.297,0.252,1.801,0.756c0.504,0.505,0.756,1.104,0.756,1.801
		c0,0.695-0.252,1.296-0.756,1.8s-1.104,0.756-1.801,0.756S717.455,131.255,716.951,130.751z"/>
	<path d="M742.15,153.719h-3.672v-2.557c-1.584,1.896-3.709,2.845-6.371,2.845c-1.992,0-3.645-0.562-4.949-1.691
		c-1.311-1.127-1.963-2.633-1.963-4.519c0-1.884,0.693-3.294,2.088-4.229c1.393-0.937,3.273-1.403,5.65-1.403h5.221v-0.721
		c0-2.544-1.416-3.815-4.246-3.815c-1.777,0-3.625,0.647-5.545,1.943l-1.801-2.521c2.326-1.848,4.969-2.771,7.92-2.771
		c2.256,0,4.098,0.57,5.525,1.711c1.428,1.14,2.143,2.934,2.143,5.382V153.719L742.15,153.719z M738.119,146.591v-1.619h-4.535
		c-2.904,0-4.357,0.912-4.357,2.735c0,0.937,0.361,1.649,1.08,2.143c0.723,0.491,1.725,0.737,3.006,0.737
		c1.285,0,2.406-0.359,3.367-1.08C737.638,148.787,738.119,147.815,738.119,146.591z"/>
	<path d="M750.826,134.567l4.104,6.301l4.248-6.301h4.789l-6.697,9.359l6.984,9.792h-4.969l-4.57-6.371l-4.465,6.371h-4.717
		l6.805-9.756l-6.441-9.396H750.826z"/>
</g>
<path fill="#EF4836" d="M870.638,251.771v-3.414h5.441l-10.441-24.832l-10.439,24.832h5.439v3.414
	c0,9.799,7.975,17.771,17.771,17.771h48.188v-10H878.41C874.125,259.541,870.638,256.055,870.638,251.771z"/>
<rect x="447.961" y="141.806" fill="#EF4836" width="25.499" height="10"/>
<path fill="#EF4836" d="M688.724,165.49h-22.414c-4.283,0-7.771-3.486-7.771-7.771c0-4.284,3.485-7.771,7.771-7.771h10.33v-10
	h-10.33c-9.799,0-17.771,7.972-17.771,17.771c0,9.8,7.972,17.771,17.771,17.771h22.414v5.441l24.834-10.441l-24.834-10.441V165.49z"
	/>
<rect x="772.722" y="139.948" fill="#EF4836" width="36.498" height="10"/>
<rect x="809.652" y="93.483" fill="none" stroke="#000000" stroke-width="8" stroke-miterlimit="10" width="110.303" height="121.213"/>
<polygon points="776.88,120.502 772.88,120.502 772.88,23.857 868.488,23.857 883.396,39.34 880.515,42.115 866.787,27.857 
	776.88,27.857 "/>
<polygon points="766.115,96.667 762.115,96.667 762.115,13.022 857.722,13.022 872.63,28.505 869.75,31.279 856.021,17.022 
	766.115,17.022 "/>
<polygon points="1101.093,44.502 1097.093,44.502 1097.093,22.857 1192.701,22.857 1207.609,38.34 1204.728,41.115 1191,26.857 
	1101.093,26.857 "/>
<polygon points="1090.328,50.667 1086.328,50.667 1086.328,12.022 1181.935,12.022 1196.843,27.505 1193.962,30.279 
	1180.234,16.022 1090.328,16.022 "/>
<line fill="none" stroke="#BCBEC0" stroke-miterlimit="10" x1="577.972" y1="0" x2="577.972" y2="296.985"/>
</svg>
