<?xml version="1.0" encoding="utf-8"?>
<!-- Generator: Adobe Illustrator 14.0.0, SVG Export Plug-In . SVG Version: 6.00 Build 43363)  -->
<!DOCTYPE svg PUBLIC "-//W3C//DTD SVG 1.1//EN" "http://www.w3.org/Graphics/SVG/1.1/DTD/svg11.dtd">
<svg version="1.1" id="Layer_1" xmlns="http://www.w3.org/2000/svg" xmlns:xlink="http://www.w3.org/1999/xlink" x="0px" y="0px"
	 width="302.135px" height="105.213px" viewBox="0 0 302.135 105.213" enable-background="new 0 0 302.135 105.213"
	 xml:space="preserve">
<path fill="#010101" d="M42.083,38.364l-6,4c0,0,17,1.333,26.667,6c-1.61,5.193-5.667,8.333-11.334,7.333
	c-5.666-1-6.195-4.66-7-10.666l-3.666-0.334c0.333,7.667,1.666,12.667,10.666,14c9,1.334,11-5,13.334-9.666
	c0.862-0.251,0.754-2.309,0-3C64.75,46.031,58.75,42.364,42.083,38.364"/>
<path fill="#010101" d="M50.684,46.878c-0.398,2.143,1.92,4.37,5.179,4.977c3.258,0.605,6.223-0.64,6.621-2.781
	c0.399-2.142-1.92-4.37-5.178-4.976C54.047,43.491,51.081,44.736,50.684,46.878"/>
<path fill="#010101" d="M14.811,38.364l-6,4c0,0,17,1.333,26.667,6c-1.611,5.193-5.667,8.333-11.334,7.333
	c-5.666-1-6.196-4.66-7-10.666l-3.666-0.334c0.333,7.667,1.666,12.667,10.666,14c9,1.334,11-5,13.334-9.666
	c0.862-0.251,0.753-2.309,0-3C37.478,46.031,31.478,42.364,14.811,38.364"/>
<path fill="#010101" d="M23.41,46.878c-0.397,2.143,1.92,4.37,5.18,4.977c3.258,0.605,6.223-0.64,6.62-2.781
	c0.399-2.142-1.92-4.37-5.178-4.976C26.774,43.491,23.809,44.736,23.41,46.878"/>
<path fill="#010101" d="M38.084,81.905C18.188,81.905,2,65.718,2,45.822C2,25.926,18.188,9.739,38.084,9.739
	s36.083,16.187,36.083,36.083S57.981,81.905,38.084,81.905L38.084,81.905z M38.084,13.739C20.394,13.739,6,28.132,6,45.822
	s14.394,32.083,32.084,32.083s32.083-14.393,32.083-32.083S55.775,13.739,38.084,13.739L38.084,13.739z"/>
<path fill="#010101" d="M290.708,44.718c-0.019-0.128-0.112-0.231-0.238-0.262c-6.701-1.606-13.576-1.831-19.873-0.643
	c-0.898,0.168-1.8,0.407-2.666,0.64c-1.324,0.351-2.572,0.683-3.832,0.793c-2.392,0.203-4.179-0.293-6.078-0.821
	c-0.777-0.216-1.58-0.438-2.429-0.611c-3.018-0.605-6.323-0.927-9.563-0.927c-3.773,0-7.453,0.433-10.639,1.251
	c-0.139,0.036-0.236,0.161-0.236,0.305c0,1.324,0.105,2.44,0.33,3.42c0.109,0.438,0.478,0.601,0.719,0.707
	c0.074,0.033,0.152,0.067,0.184,0.092c0.78,0.639,1.062,2.342,1.312,3.846c0.104,0.626,0.201,1.218,0.332,1.724
	c0.834,3.308,2.063,5.293,3.981,6.447c1.243,0.741,3.085,1.149,5.187,1.149c4.363,0,9.615-1.772,11.531-5.765
	c0.982-1.33,1.973-4.252,3.086-5.546c0.104-0.125,0.5-0.259,1.115-0.259c0.557,0,1.029,0.116,1.195,0.234
	c0.657,1.047,1.073,1.919,1.477,2.763c0.521,1.088,1.008,2.117,1.938,3.316c3.433,4.445,7.726,5.38,10.724,5.38h0.033
	c1.021-0.002,4.496-0.104,6.379-1.325c2.221-1.438,2.753-4.27,3.264-7.006c0.285-1.52,0.58-3.089,1.158-4.456
	c0.03-0.084,0.192-0.129,0.414-0.185c0.313-0.076,0.746-0.182,0.879-0.654C290.561,47.509,290.846,45.705,290.708,44.718
	 M241.451,48.61c-1.221,2.586-1.033,6.097-0.541,8.689c-0.682-2.022-1.188-4.623-1.153-6.269c0.087-3.748,1.598-4.821,4.572-5.387
	C243.201,46.282,242.104,47.224,241.451,48.61 M269.856,47.689c-1.028,1.219-1.66,2.383-1.984,3.741
	c-0.206-1.55-0.151-3.222,0.836-4.146c0.626-0.583,2.142-1.147,3.917-1.588C271.434,46.369,270.464,47.119,269.856,47.689"/>
<path fill="#010101" d="M263.053,84.704c-19.896,0-36.084-16.188-36.084-36.083c0-19.896,16.188-36.083,36.084-36.083
	c19.896,0,36.082,16.187,36.082,36.083C299.135,68.519,282.948,84.704,263.053,84.704L263.053,84.704z M263.053,16.538
	c-17.691,0-32.084,14.393-32.084,32.083c0,17.69,14.393,32.083,32.084,32.083c17.689,0,32.082-14.393,32.082-32.083
	C295.135,30.931,280.743,16.538,263.053,16.538L263.053,16.538z"/>
<path fill="#010101" d="M278.817,78.731V66.444l-15.868-4l-15.867,4v12.287l-15.404-16.78c4.541,19.524,31.271,34.786,31.271,34.786
	s26.938-15.262,31.48-34.786L278.817,78.731z M274.683,80.591l-11.734,2.096l-11.734-2.096l-0.752-8.479l12.486-0.666l12.487,0.666
	L274.683,80.591z"/>
<path fill="#010101" d="M39.861,70.771c-0.427,1.41-4.458,2.739-7.986,1.67c-3.526-1.067-5.214-4.129-4.786-5.539
	c0.427-1.409,3.481,0.27,7.009,1.336C37.623,69.308,40.287,69.36,39.861,70.771"/>
<g>
	<path fill="#EF4836" d="M140.681,57.428h-22.414c-4.836,0-8.771-3.935-8.771-8.771c0-4.836,3.935-8.771,8.771-8.771h10.33v-8
		h-10.33c-9.248,0-16.771,7.523-16.771,16.771c0,9.248,7.523,16.771,16.771,16.771h22.414v6.442l24.833-10.442l-24.833-10.44V57.428
		z"/>
	<path fill="#EF4836" d="M184.734,32.071H162.32v-6.442l-24.833,10.442l24.833,10.44v-6.44h22.414c4.837,0,8.771,3.935,8.771,8.771
		c0,4.836-3.935,8.771-8.771,8.771h-10.33v8h10.33c9.248,0,16.771-7.523,16.771-16.771
		C201.505,39.595,193.982,32.071,184.734,32.071z"/>
</g>
</svg>
