<?xml version="1.0" encoding="utf-8"?>
<!-- Generator: Adobe Illustrator 14.0.0, SVG Export Plug-In . SVG Version: 6.00 Build 43363)  -->
<!DOCTYPE svg PUBLIC "-//W3C//DTD SVG 1.1//EN" "http://www.w3.org/Graphics/SVG/1.1/DTD/svg11.dtd">
<svg version="1.1" id="Layer_1" xmlns="http://www.w3.org/2000/svg" xmlns:xlink="http://www.w3.org/1999/xlink" x="0px" y="0px"
	 width="1085.895px" height="306px" viewBox="0 0 1085.895 306" enable-background="new 0 0 1085.895 306" xml:space="preserve">
<path fill="#EF4836" d="M167.51,143.457c0-4.285,3.486-7.771,7.771-7.771h39.413v5.441l24.834-10.44l-24.834-10.44v5.439h-39.413
	c-9.799,0-17.771,7.974-17.771,17.771c0,9.8,7.972,17.771,17.771,17.771h80.791v-10h-80.791
	C170.996,151.228,167.51,147.741,167.51,143.457z"/>
<polygon fill="#EF4836" points="394.681,131.25 371.854,145.552 398.042,151.861 397.166,146.489 697.609,97.495 696,87.625 
	395.557,136.62 "/>
<polygon fill="#EF4836" points="880.346,115.494 845.93,103.604 847.707,98.46 820.826,100.222 840.888,118.199 842.664,113.056 
	877.082,124.945 "/>
<g>
	<path d="M748.003,101.111l-9.545-53.396h8.441l6.696,41.621l6.75-41.621h8.446l-9.716,53.396H748.003L748.003,101.111z"/>
</g>
<g>
	<path d="M298.532,167.111h-8.054v-53.439h11.558l7.506,38.386l7.205-38.386h11.104v53.438h-8.054v-33.58l-6.988,33.58h-6.477
		l-7.799-33.494L298.532,167.111L298.532,167.111z"/>
</g>
<path d="M753.404,134.452c-33.767,0-61.229-27.465-61.229-61.227c0-33.759,27.466-61.225,61.229-61.225
	c33.76,0,61.226,27.465,61.226,61.225C814.63,106.99,787.164,134.452,753.404,134.452L753.404,134.452z M753.404,20.004
	c-29.354,0-53.229,23.876-53.229,53.224c0,29.352,23.877,53.229,53.229,53.229c29.349,0,53.226-23.877,53.226-53.229
	C806.63,43.881,782.753,20.004,753.404,20.004L753.404,20.004z"/>
<g>
	<path d="M748.003,260.608l-9.545-53.396h8.441l6.696,41.621l6.75-41.621h8.446l-9.716,53.396H748.003L748.003,260.608z"/>
</g>
<path d="M753.404,293.95c-33.767,0-61.229-27.465-61.229-61.229c0-33.759,27.466-61.226,61.229-61.226
	c33.76,0,61.226,27.466,61.226,61.226C814.63,266.487,787.164,293.95,753.404,293.95L753.404,293.95z M753.404,179.502
	c-29.354,0-53.229,23.876-53.229,53.224c0,29.352,23.877,53.229,53.229,53.229c29.349,0,53.226-23.877,53.226-53.229
	C806.63,203.379,782.753,179.502,753.404,179.502L753.404,179.502z"/>
<path d="M309.404,200.452c-33.76,0-61.225-27.466-61.225-61.228c0-33.759,27.465-61.225,61.225-61.225
	c33.76,0,61.225,27.465,61.225,61.225C370.629,172.99,343.164,200.452,309.404,200.452L309.404,200.452z M309.404,86.004
	c-29.349,0-53.225,23.876-53.225,53.224c0,29.353,23.876,53.229,53.225,53.229c29.349,0,53.225-23.877,53.225-53.229
	C362.629,109.881,338.753,86.004,309.404,86.004L309.404,86.004z"/>
<g>
	<path d="M104.869,168.99c0,2.115-0.819,3.922-2.458,5.422c-1.639,1.5-3.616,2.25-5.933,2.25h-8.39v-32.062h8.391
		c2.335,0,4.317,0.75,5.947,2.25c1.629,1.5,2.444,3.301,2.444,5.396L104.869,168.99L104.869,168.99z M93.427,171.882h3.221
		c0.848,0,1.563-0.272,2.147-0.831c0.583-0.555,0.876-1.205,0.876-1.955v-16.772c0-0.769-0.297-1.422-0.89-1.971
		c-0.593-0.546-1.304-0.814-2.133-0.814h-3.221V171.882z"/>
	<path d="M108.542,176.662v-32.062h7.995c2.109,0,4.012,0.503,5.707,1.51c1.45,0.854,2.486,2.174,3.108,3.963
		c0.339,0.955,0.508,2.09,0.508,3.398c0,2.146-0.631,3.869-1.893,5.165c-0.528,0.545-1.149,0.963-1.865,1.252
		c1.187,0.408,2.193,1.223,3.023,2.432c0.545,0.815,0.951,1.875,1.215,3.17c0.131,0.666,0.197,1.403,0.197,2.227
		c0,2.027-0.424,3.75-1.271,5.165c-0.66,1.106-1.593,1.995-2.797,2.659c-1.356,0.75-2.703,1.125-4.04,1.125L108.542,176.662
		L108.542,176.662L108.542,176.662z M114.305,157.691h2.232c1.657,0,2.769-0.73,3.333-2.199c0.207-0.545,0.311-1.219,0.311-2.021
		c0-1.33-0.358-2.335-1.074-3.018c-0.66-0.631-1.516-0.946-2.571-0.946h-2.232L114.305,157.691L114.305,157.691z M114.305,171.882
		h2.232c1.808,0,3.061-0.845,3.757-2.53c0.245-0.576,0.367-1.24,0.367-1.99c0-1.791-0.377-3.098-1.13-3.912
		c-0.678-0.75-1.677-1.125-2.995-1.125h-2.232L114.305,171.882L114.305,171.882z"/>
</g>
<path d="M953.104,135.681c-0.019-0.129-0.107-0.23-0.233-0.262c-6.701-1.607-13.576-1.832-19.873-0.643
	c-0.898,0.168-1.8,0.403-2.666,0.639c-1.324,0.352-2.572,0.684-3.832,0.793c-2.396,0.203-4.179-0.293-6.078-0.82
	c-0.776-0.217-1.58-0.438-2.429-0.609c-3.021-0.604-6.323-0.93-9.563-0.93c-3.771,0-7.453,0.436-10.639,1.252
	c-0.139,0.035-0.236,0.16-0.236,0.307c0,1.322,0.105,2.438,0.33,3.42c0.109,0.438,0.479,0.601,0.72,0.707
	c0.073,0.033,0.151,0.064,0.188,0.093c0.78,0.639,1.062,2.342,1.312,3.846c0.104,0.625,0.199,1.219,0.33,1.726
	c0.834,3.307,2.063,5.293,3.981,6.444c1.243,0.742,3.085,1.15,5.188,1.15c4.361,0,9.613-1.773,11.529-5.765
	c0.982-1.33,1.976-4.254,3.086-5.549c0.104-0.125,0.5-0.26,1.115-0.26c0.557,0,1.029,0.117,1.195,0.234
	c0.652,1.047,1.068,1.92,1.477,2.764c0.521,1.088,1.008,2.117,1.938,3.316c3.433,4.442,7.726,5.379,10.724,5.379h0.033
	c1.021-0.002,4.496-0.104,6.379-1.324c2.221-1.438,2.753-4.27,3.264-7.006c0.285-1.521,0.58-3.09,1.158-4.457
	c0.03-0.084,0.192-0.129,0.414-0.184c0.312-0.076,0.746-0.185,0.879-0.654C952.956,138.472,953.241,136.668,953.104,135.681
	 M903.847,139.573c-1.221,2.586-1.034,6.097-0.541,8.688c-0.682-2.021-1.188-4.623-1.148-6.27c0.087-3.748,1.598-4.82,4.566-5.389
	C905.597,137.245,904.499,138.187,903.847,139.573 M932.251,138.652c-1.028,1.219-1.66,2.383-1.985,3.74
	c-0.206-1.551-0.146-3.223,0.836-4.146c0.626-0.585,2.146-1.148,3.917-1.589C933.829,137.332,932.858,138.082,932.251,138.652"/>
<circle fill="none" stroke="#000000" stroke-width="6" stroke-miterlimit="10" cx="925.447" cy="139.584" r="34.083"/>
<path d="M941.212,169.695v-12.287l-15.868-4l-15.868,4v12.287l-15.398-16.782c4.541,19.526,31.271,34.787,31.271,34.787
	s26.938-15.261,31.48-34.787L941.212,169.695z M937.078,171.554l-11.734,2.099l-11.729-2.099l-0.752-8.479l12.481-0.666
	l12.487,0.666L937.078,171.554z"/>
<path fill="none" stroke="#231F20" stroke-width="6" stroke-miterlimit="10" d="M138.029,124.093v49.711
	c0,5.971-12.086,13.368-31.584,13.368s-31.585-7.397-31.585-13.368v-49.711"/>
<path fill="none" stroke="#231F20" stroke-width="6" stroke-miterlimit="10" d="M138.029,124.093
	c0,5.969-12.086,10.809-31.584,10.809s-31.585-4.84-31.585-10.809c0-5.968,12.087-10.807,31.585-10.807
	C125.943,113.285,138.029,118.125,138.029,124.093z"/>
<g>
	
		<rect x="540.864" y="188.916" transform="matrix(0.9869 0.1612 -0.1612 0.9869 38.4337 -85.8651)" fill="#EF4836" width="14.999" height="10.001"/>
	
		<rect x="565.541" y="192.938" transform="matrix(0.9869 0.1612 -0.1612 0.9869 39.3987 -89.7796)" fill="#EF4836" width="15.001" height="10"/>
	
		<rect x="639.551" y="205.055" transform="matrix(0.9869 0.1612 -0.1612 0.9869 42.3228 -101.5569)" fill="#EF4836" width="15" height="9.999"/>
	<polygon fill="#EF4836" points="665.42,202.452 664.543,207.823 664.136,207.757 662.523,217.626 662.932,217.692 662.055,223.062 
		688.244,216.761 	"/>
	
		<rect x="614.886" y="201.004" transform="matrix(0.9869 0.1612 -0.1612 0.9869 41.3473 -97.6339)" fill="#EF4836" width="15" height="10"/>
	
		<rect x="516.192" y="184.884" transform="matrix(0.9869 0.1612 -0.1612 0.9869 37.4581 -81.9355)" fill="#EF4836" width="15" height="10.001"/>
	
		<rect x="590.214" y="196.997" transform="matrix(0.9869 0.1611 -0.1611 0.9869 40.3407 -93.6375)" fill="#EF4836" width="15" height="10"/>
	
		<rect x="491.52" y="180.854" transform="matrix(0.9869 0.1612 -0.1612 0.9869 36.4858 -78.0109)" fill="#EF4836" width="15" height="10.002"/>
	
		<rect x="466.847" y="176.821" transform="matrix(0.9869 0.1612 -0.1612 0.9869 35.5131 -74.0864)" fill="#EF4836" width="15" height="10.001"/>
	
		<rect x="442.172" y="172.794" transform="matrix(0.9869 0.1612 -0.1612 0.9869 34.5412 -70.1615)" fill="#EF4836" width="15" height="10.001"/>
	<path fill="none" d="M382.167,194.12c6.219-8.92,10.863-19.104,13.458-30.22l-11.481-1.875c-2.239,9.17-6.104,17.589-11.204,25.021
		L382.167,194.12z"/>
	<path fill="#EF4836" d="M365,180.963l7.938,6.084c5.101-7.433,8.964-15.854,11.205-25.021l-9.896-1.615
		C372.322,167.908,369.145,174.816,365,180.963z"/>
	<path fill="#EF4836" d="M382.168,194.12l9.929,7.606c7.421-10.519,12.92-22.596,15.89-35.808l-12.361-2.019
		C393.032,175.015,388.386,185.2,382.168,194.12z"/>
	<path fill="#EF4836" d="M401.281,208.765l11.913,9.127c9.99-13.904,17.304-30.009,21.042-47.684l-14.819-2.421
		C416.11,182.942,409.819,196.771,401.281,208.765z"/>
</g>
<g>
	
		<rect x="540.844" y="83.55" transform="matrix(0.987 -0.1609 0.1609 0.987 -7.1031 89.3899)" fill="#EF4836" width="14.999" height="10"/>
	
		<rect x="565.517" y="79.532" transform="matrix(0.987 -0.1609 0.1609 0.987 -6.1354 93.2773)" fill="#EF4836" width="15.001" height="10"/>
	
		<rect x="639.537" y="67.459" transform="matrix(0.987 -0.1609 0.1609 0.987 -3.2282 105.0546)" fill="#EF4836" width="15" height="10"/>
	<polygon fill="#EF4836" points="688.26,65.764 662.07,59.456 662.946,64.826 662.539,64.893 664.148,74.761 664.555,74.695 
		665.431,80.067 	"/>
	
		<rect x="614.862" y="71.483" transform="matrix(0.987 -0.1609 0.1609 0.987 -4.1971 101.1368)" fill="#EF4836" width="15" height="10"/>
	
		<rect x="516.166" y="87.616" transform="matrix(0.987 -0.161 0.161 0.987 -8.0797 85.5178)" fill="#EF4836" width="15" height="10.001"/>
	
		<rect x="590.189" y="75.508" transform="matrix(0.987 -0.1609 0.1609 0.987 -5.1667 97.1999)" fill="#EF4836" width="15" height="10"/>
	
		<rect x="491.498" y="91.604" transform="matrix(0.987 -0.1609 0.1609 0.987 -9.0421 81.5493)" fill="#EF4836" width="15" height="10"/>
	
		<rect x="466.825" y="95.624" transform="matrix(0.987 -0.1609 0.1609 0.987 -10.0106 77.6367)" fill="#EF4836" width="14.999" height="10"/>
	
		<rect x="442.152" y="99.652" transform="matrix(0.987 -0.1609 0.1609 0.987 -10.9798 73.7094)" fill="#EF4836" width="15.001" height="10"/>
	<path fill="none" d="M372.946,95.396c5.098,7.435,8.96,15.854,11.196,25.024l11.482-1.873
		c-2.592-11.115-7.233-21.301-13.449-30.222L372.946,95.396z"/>
	<path fill="#EF4836" d="M374.247,122.034l9.896-1.614c-2.237-9.169-6.1-17.589-11.196-25.024l-7.94,6.082
		C369.148,107.626,372.323,114.535,374.247,122.034z"/>
	<path fill="#EF4836" d="M395.627,118.548l12.361-2.016c-2.966-13.213-8.462-25.291-15.88-35.812l-9.932,7.605
		C388.393,97.247,393.035,107.433,395.627,118.548z"/>
	<path fill="#EF4836" d="M419.419,114.668l14.819-2.417c-3.733-17.676-11.042-33.783-21.03-47.69l-11.915,9.125
		C409.829,85.68,416.115,99.513,419.419,114.668z"/>
</g>
</svg>
