<?xml version="1.0" encoding="utf-8"?>
<!-- Generator: Adobe Illustrator 14.0.0, SVG Export Plug-In . SVG Version: 6.00 Build 43363)  -->
<!DOCTYPE svg PUBLIC "-//W3C//DTD SVG 1.1//EN" "http://www.w3.org/Graphics/SVG/1.1/DTD/svg11.dtd">
<svg version="1.1" id="Layer_1" xmlns="http://www.w3.org/2000/svg" xmlns:xlink="http://www.w3.org/1999/xlink" x="0px" y="0px"
	 width="1333.093px" height="296.984px" viewBox="-92.655 0 1333.093 296.984" enable-background="new -92.655 0 1333.093 296.984"
	 xml:space="preserve">
<path d="M1068.12,164.939H949.805V35.728h97.021l20.976,26.729L1068.12,164.939L1068.12,164.939z M957.805,156.939h102.29
	l-0.286-91.707l-16.874-21.505h-85.13V156.939L957.805,156.939z"/>
<rect x="974.577" y="93.482" fill="none" width="110.303" height="121.21"/>
<rect x="974.577" y="93.483" fill="#FFFFFF" width="110.303" height="121.213"/>
<polygon fill="#EF4836" points="942.744,137.728 919.33,137.728 919.33,147.728 942.744,147.728 942.744,153.169 967.576,142.727 
	942.744,132.286 "/>
<polygon fill="#EF4836" points="921.597,76.728 946.429,66.286 921.597,55.845 921.597,61.286 898.183,61.286 898.183,71.286 
	921.597,71.286 "/>
<polygon fill="#EF4836" points="1117.452,61.286 1097.039,61.286 1097.039,55.845 1072.207,66.286 1097.039,76.728 1097.039,71.286 
	1117.452,71.286 "/>
<path fill="#EF4836" d="M323.963,167.349H291.55c-4.285,0-7.771-3.485-7.771-7.771s3.486-7.771,7.771-7.771h20.33v-10h-20.33
	c-9.799,0-17.771,7.974-17.771,17.771s7.972,17.771,17.771,17.771h32.414v5.442l24.833-10.442l-24.833-10.44L323.963,167.349
	L323.963,167.349z"/>
<path fill="#EF4836" d="M74.652,101.73c0,9.799,7.972,17.772,17.771,17.772h4.914v5.441l24.832-10.441l-24.832-10.441v5.441h-4.914
	c-4.285,0-7.771-3.486-7.771-7.772c0-4.285,3.486-7.771,7.771-7.771h35.33v-10h-35.33C82.625,83.959,74.652,91.932,74.652,101.73z"
	/>
<rect x="193.632" y="163.508" transform="matrix(0.5419 0.8404 -0.8404 0.5419 249.3331 -80.6325)" fill="#EF4836" width="10" height="49.785"/>
<rect x="173.686" y="125.665" transform="matrix(0.8395 0.5433 -0.5433 0.8395 102.8671 -86.9547)" fill="#EF4836" width="49.904" height="9.999"/>
<line fill="none" stroke="#000000" stroke-width="5" stroke-miterlimit="10" x1="1083.495" y1="211.897" x2="1084.576" y2="214.695"/>
<path d="M39.067,141.541c-19.954,0-35.585-7.629-35.585-17.368V74.462h8v49.711c0,2.182,8.599,9.368,27.585,9.368
	c18.986,0,27.585-7.188,27.585-9.368V74.462h8v49.711C74.652,133.912,59.021,141.541,39.067,141.541L39.067,141.541z"/>
<path d="M39.067,89.269c-21.95,0-35.585-5.673-35.585-14.807s13.635-14.807,35.585-14.807c21.95,0,35.585,5.674,35.585,14.807
	S61.017,89.269,39.067,89.269L39.067,89.269z M39.067,67.656c-20.687,0-27.585,5.365-27.585,6.807c0,1.44,6.898,6.807,27.585,6.807
	s27.585-5.365,27.585-6.807C66.652,73.02,59.754,67.656,39.067,67.656L39.067,67.656z"/>
<g>
	<path d="M150.521,234.977l-5.727-32.037h5.065l4.021,24.974l4.05-24.974h5.068l-5.83,32.037H150.521z"/>
</g>
<g>
	<path d="M243.213,176.318c-2.131,0-3.942-0.745-5.434-2.236c-1.492-1.491-2.237-3.294-2.237-5.407v-17.489
		c0-2.13,0.75-3.94,2.25-5.433c1.5-1.491,3.307-2.237,5.42-2.237c2.13,0,3.938,0.75,5.42,2.25c1.483,1.5,2.224,3.308,2.224,5.42
		v3.656h-5.011v-3.759c0-0.768-0.273-1.422-0.818-1.968c-0.546-0.546-1.202-0.818-1.969-0.818s-1.419,0.272-1.956,0.818
		s-0.806,1.201-0.806,1.968v17.54c0,0.767,0.269,1.419,0.806,1.956s1.189,0.806,1.956,0.806s1.423-0.269,1.969-0.806
		c0.545-0.537,0.818-1.189,0.818-1.956v-4.423h5.011v4.475c0,2.131-0.75,3.938-2.25,5.42S245.31,176.318,243.213,176.318z"/>
</g>
<g>
	<path d="M36.491,118.345c0,2.114-0.819,3.921-2.458,5.42c-1.639,1.5-3.616,2.25-5.933,2.25h-8.39V93.953h8.391
		c2.335,0,4.317,0.75,5.947,2.25c1.629,1.5,2.444,3.298,2.444,5.395L36.491,118.345L36.491,118.345z M25.049,121.234h3.221
		c0.848,0,1.563-0.276,2.147-0.831c0.583-0.554,0.876-1.205,0.876-1.955v-16.772c0-0.767-0.297-1.423-0.89-1.969
		c-0.593-0.546-1.304-0.818-2.133-0.818h-3.221V121.234z"/>
	<path d="M40.164,126.016V93.953h7.995c2.109,0,4.012,0.503,5.707,1.508c1.45,0.853,2.486,2.173,3.108,3.963
		c0.339,0.955,0.508,2.088,0.508,3.4c0,2.147-0.631,3.869-1.893,5.165c-0.528,0.545-1.149,0.963-1.865,1.252
		c1.187,0.408,2.194,1.219,3.023,2.429c0.546,0.818,0.951,1.875,1.215,3.17c0.131,0.665,0.198,1.406,0.198,2.225
		c0,2.028-0.424,3.75-1.271,5.165c-0.66,1.108-1.592,1.995-2.797,2.659c-1.356,0.75-2.703,1.125-4.04,1.125h-9.888V126.016z
		 M45.927,107.044h2.232c1.657,0,2.769-0.732,3.333-2.199c0.207-0.545,0.311-1.219,0.311-2.02c0-1.33-0.358-2.335-1.074-3.018
		c-0.66-0.63-1.516-0.946-2.571-0.946h-2.232L45.927,107.044L45.927,107.044z M45.927,121.234h2.232c1.808,0,3.061-0.844,3.757-2.53
		c0.245-0.579,0.367-1.244,0.367-1.994c0-1.79-0.377-3.094-1.13-3.912c-0.678-0.75-1.677-1.125-2.995-1.125h-2.232L45.927,121.234
		L45.927,121.234z"/>
</g>
<g>
	<path d="M970.197,69.151v13.577h-4.832V50.69h4.832v13.604h5.83V50.69h4.832v32.037h-4.832V69.151H970.197z"/>
	<path d="M989.322,55.548h-5.14V50.69h15.085v4.858h-5.112v27.179h-4.833V55.548L989.322,55.548z"/>
	<path d="M1007.424,82.728h-4.832V50.665h6.936l4.503,23.032l4.323-23.032h6.661v32.062h-4.832V62.58l-4.191,20.147h-3.888
		l-4.68-20.097V82.728z"/>
	<path d="M1041.506,82.728h-13.167V50.69h4.832v27.23h8.335V82.728z"/>
</g>
<g>
	<path d="M1134.351,83.137c-2.131,0-3.94-0.746-5.433-2.237c-1.492-1.49-2.237-3.294-2.237-5.407V58.003
		c0-2.13,0.75-3.941,2.25-5.434c1.5-1.49,3.308-2.236,5.42-2.236c2.132,0,3.938,0.75,5.421,2.25s2.226,3.307,2.226,5.42v3.656
		h-5.012v-3.759c0-0.767-0.272-1.423-0.818-1.969c-0.546-0.545-1.201-0.817-1.969-0.817s-1.419,0.272-1.956,0.817
		c-0.536,0.546-0.806,1.202-0.806,1.969v17.54c0,0.768,0.27,1.419,0.806,1.956c0.537,0.537,1.188,0.807,1.956,0.807
		s1.423-0.27,1.969-0.807s0.818-1.188,0.818-1.956v-4.423h5.012v4.476c0,2.131-0.751,3.938-2.25,5.42
		C1138.246,82.395,1136.447,83.137,1134.351,83.137z"/>
	<path d="M1161.299,74.75c0.034,2.232-0.545,4.142-1.738,5.727c-0.783,1.074-1.892,1.833-3.323,2.275
		c-0.768,0.239-1.661,0.357-2.686,0.357c-1.892,0-3.46-0.468-4.704-1.405c-1.04-0.768-1.861-1.812-2.468-3.132
		c-0.604-1.321-0.958-2.833-1.062-4.539l4.604-0.332c0.204,1.867,0.698,3.221,1.482,4.061c0.578,0.634,1.244,0.934,1.994,0.899
		c1.057-0.034,1.899-0.555,2.53-1.562c0.324-0.495,0.486-1.203,0.486-2.124c0-1.331-0.605-2.652-1.815-3.966
		c-0.955-0.904-2.387-2.261-4.296-4.069c-1.603-1.552-2.734-2.942-3.399-4.171c-0.717-1.382-1.074-2.883-1.074-4.504
		c0-2.917,0.979-5.127,2.939-6.628c1.211-0.904,2.711-1.355,4.5-1.355c1.723,0,3.196,0.383,4.424,1.149
		c0.954,0.597,1.727,1.433,2.313,2.506c0.588,1.074,0.942,2.311,1.062,3.707l-4.628,0.845c-0.137-1.312-0.512-2.336-1.125-3.068
		c-0.442-0.528-1.083-0.793-1.918-0.793c-0.886,0-1.56,0.393-2.02,1.176c-0.375,0.631-0.562,1.415-0.562,2.354
		c0,1.466,0.63,2.958,1.893,4.474c0.478,0.58,1.192,1.262,2.147,2.045c1.125,0.938,1.866,1.594,2.225,1.969
		c1.192,1.193,2.113,2.37,2.762,3.528c0.307,0.546,0.554,1.048,0.741,1.509C1161.044,72.824,1161.282,73.847,1161.299,74.75z"/>
	<path d="M1180.604,74.75c0.033,2.232-0.546,4.142-1.738,5.727c-0.784,1.074-1.893,1.833-3.324,2.275
		c-0.767,0.239-1.661,0.357-2.686,0.357c-1.892,0-3.459-0.468-4.703-1.405c-1.04-0.768-1.862-1.812-2.469-3.132
		c-0.604-1.321-0.958-2.833-1.061-4.539l4.603-0.332c0.204,1.867,0.698,3.221,1.482,4.061c0.579,0.634,1.244,0.934,1.994,0.899
		c1.057-0.034,1.899-0.555,2.531-1.562c0.323-0.495,0.485-1.203,0.485-2.124c0-1.331-0.604-2.652-1.814-3.966
		c-0.955-0.904-2.387-2.261-4.296-4.069c-1.604-1.552-2.735-2.942-3.4-4.171c-0.716-1.382-1.074-2.883-1.074-4.504
		c0-2.917,0.98-5.127,2.94-6.628c1.211-0.904,2.711-1.355,4.5-1.355c1.722,0,3.195,0.383,4.424,1.149
		c0.954,0.597,1.726,1.433,2.312,2.506c0.588,1.074,0.942,2.311,1.062,3.707l-4.628,0.845c-0.138-1.312-0.513-2.336-1.125-3.068
		c-0.443-0.528-1.083-0.793-1.918-0.793c-0.886,0-1.561,0.393-2.021,1.176c-0.375,0.631-0.562,1.415-0.562,2.354
		c0,1.466,0.63,2.958,1.892,4.474c0.479,0.58,1.193,1.262,2.148,2.045c1.125,0.938,1.865,1.594,2.224,1.969
		c1.193,1.193,2.114,2.37,2.762,3.528c0.308,0.546,0.554,1.048,0.741,1.509C1180.348,72.824,1180.586,73.847,1180.604,74.75z"/>
</g>
<g>
	<path d="M1002.553,129.057c0,2.114-0.741,3.921-2.225,5.42c-1.483,1.5-3.272,2.25-5.369,2.25h-7.594v-32.062h7.594
		c2.113,0,3.907,0.75,5.382,2.25c1.476,1.5,2.212,3.298,2.212,5.395V129.057z M992.197,131.946h2.915
		c0.767,0,1.415-0.276,1.942-0.83c0.528-0.555,0.792-1.206,0.792-1.956v-16.772c0-0.767-0.269-1.423-0.805-1.969
		c-0.537-0.545-1.181-0.818-1.931-0.818h-2.915L992.197,131.946L992.197,131.946z"/>
	<path d="M1013.521,104.282c2.131,0,3.94,0.75,5.434,2.25c1.491,1.5,2.237,3.307,2.237,5.42v17.487c0,2.131-0.751,3.942-2.25,5.435
		c-1.5,1.492-3.309,2.236-5.421,2.236c-2.132,0-3.938-0.75-5.421-2.25s-2.225-3.307-2.225-5.42v-17.487
		c0-2.131,0.75-3.942,2.25-5.435S1011.424,104.282,1013.521,104.282z M1016.154,111.85c0-0.767-0.27-1.419-0.807-1.956
		s-1.188-0.805-1.956-0.805c-0.767,0-1.423,0.269-1.969,0.805c-0.546,0.537-0.817,1.189-0.817,1.956v17.54
		c0,0.768,0.271,1.419,0.817,1.956s1.202,0.806,1.969,0.806c0.769,0,1.419-0.269,1.956-0.806s0.807-1.188,0.807-1.956V111.85z"/>
	<path d="M1029.347,136.728h-4.832v-32.062h6.936l4.503,23.032l4.323-23.032h6.662v32.062h-4.832V116.58l-4.192,20.147h-3.887
		l-4.681-20.097V136.728z"/>
</g>
<path d="M1088.88,218.696H970.577V89.483h118.303V218.696L1088.88,218.696z M978.577,210.696h102.303V97.483H978.577V210.696
	L978.577,210.696z"/>
<line fill="none" stroke="#000000" stroke-width="5" stroke-miterlimit="10" x1="953.805" y1="160.939" x2="954.886" y2="163.739"/>
<path d="M969.264,207.884l-2.277-5.897l4.664-1.803l2.277,5.897L969.264,207.884L969.264,207.884z M965.087,197.073l-2.279-5.896
	l4.664-1.803l2.279,5.896L965.087,197.073L965.087,197.073z M960.909,186.262l-2.278-5.896l4.664-1.804l2.278,5.897L960.909,186.262
	L960.909,186.262z M956.731,175.451l-2.278-5.897l4.664-1.803l2.277,5.896L956.731,175.451L956.731,175.451z"/>
<line fill="none" stroke="#000000" stroke-width="5" stroke-miterlimit="10" x1="973.495" y1="211.897" x2="974.576" y2="214.695"/>
<line fill="none" stroke="#000000" stroke-width="5" stroke-miterlimit="10" x1="898.88" y1="160.939" x2="899.961" y2="163.739"/>
<line fill="none" stroke="#000000" stroke-width="5" stroke-miterlimit="10" x1="918.57" y1="211.897" x2="919.651" y2="214.695"/>
<g>
	<path d="M811.075,75.466c0,2.131-0.745,3.934-2.236,5.408c-1.492,1.475-3.295,2.211-5.408,2.211c-1.228,0-2.225-0.128-2.991-0.383
		l0.69-4.5c0.545,0.102,1.014,0.152,1.406,0.152c0.237,0.018,0.579,0.01,1.021-0.025c0.784-0.052,1.444-0.332,1.981-0.845
		c0.537-0.511,0.806-1.149,0.806-1.917V50.742h4.729L811.075,75.466L811.075,75.466z"/>
	<path d="M830.379,74.75c0.034,2.232-0.545,4.142-1.738,5.727c-0.783,1.074-1.892,1.833-3.323,2.275
		c-0.768,0.239-1.661,0.357-2.686,0.357c-1.892,0-3.46-0.468-4.704-1.405c-1.04-0.768-1.861-1.812-2.468-3.132
		c-0.604-1.321-0.958-2.833-1.061-4.539l4.603-0.332c0.204,1.867,0.698,3.221,1.482,4.061c0.579,0.634,1.244,0.934,1.994,0.899
		c1.057-0.034,1.899-0.555,2.53-1.562c0.324-0.495,0.486-1.203,0.486-2.124c0-1.331-0.604-2.652-1.815-3.966
		c-0.954-0.904-2.387-2.261-4.296-4.069c-1.603-1.552-2.734-2.942-3.399-4.171c-0.716-1.382-1.074-2.883-1.074-4.504
		c0-2.917,0.98-5.127,2.94-6.628c1.211-0.904,2.711-1.355,4.5-1.355c1.722,0,3.195,0.383,4.424,1.149
		c0.954,0.597,1.726,1.433,2.312,2.506c0.588,1.074,0.942,2.311,1.062,3.707l-4.628,0.845c-0.138-1.312-0.513-2.336-1.125-3.068
		c-0.443-0.528-1.083-0.793-1.918-0.793c-0.887,0-1.561,0.393-2.021,1.176c-0.375,0.631-0.562,1.415-0.562,2.354
		c0,1.466,0.63,2.958,1.892,4.474c0.479,0.58,1.193,1.262,2.148,2.045c1.125,0.938,1.865,1.594,2.224,1.969
		c1.193,1.193,2.114,2.37,2.762,3.528c0.308,0.546,0.555,1.048,0.741,1.509C830.124,72.824,830.362,73.847,830.379,74.75z"/>
</g>
<g>
	<path d="M903.195,164.939H784.88V35.728H881.9l20.976,26.729L903.195,164.939L903.195,164.939z M792.88,156.939h102.29
		l-0.286-91.707L878.01,43.728h-85.13V156.939L792.88,156.939z"/>
	<rect x="809.651" y="93.482" fill="none" width="110.304" height="121.21"/>
	<rect x="809.652" y="93.483" fill="#FFFFFF" width="110.303" height="121.213"/>
</g>
<g>
	<path d="M828.646,129.365l-1.176,7.363h-5.03l5.445-32.037h6.647l5.369,32.037h-5.081l-1.131-7.363H828.646z M831.184,112.029
		l-1.789,12.631h3.579L831.184,112.029z"/>
	<path d="M850.846,104.69c2.354,0,4.229,0.742,5.625,2.226c1.295,1.415,1.943,3.222,1.943,5.42v4.652
		c0,2.114-0.737,3.922-2.212,5.421c-1.476,1.5-3.26,2.25-5.356,2.25h-2.787v12.067h-4.832V104.69H850.846z M853.735,112.412
		c0-0.835-0.252-1.509-0.755-2.021c-0.504-0.511-1.173-0.767-2.008-0.767h-2.915v10.252h2.915c0.768,0,1.419-0.272,1.956-0.818
		s0.807-1.202,0.807-1.969V112.412z"/>
	<path d="M869.356,104.69c2.353,0,4.228,0.742,5.625,2.226c1.295,1.415,1.942,3.222,1.942,5.42v4.652
		c0,2.114-0.736,3.922-2.212,5.421c-1.475,1.5-3.26,2.25-5.355,2.25h-2.787v12.067h-4.832V104.69H869.356z M872.246,112.412
		c0-0.835-0.252-1.509-0.755-2.021c-0.503-0.511-1.172-0.767-2.007-0.767h-2.915v10.252h2.915c0.767,0,1.419-0.272,1.955-0.818
		c0.537-0.546,0.807-1.202,0.807-1.969V112.412z"/>
</g>
<g>
	<polygon points="787.629,164.639 786.548,161.84 791.212,160.039 792.293,162.838 	"/>
	<path d="M804.339,207.884l-2.278-5.897l4.664-1.803l2.278,5.897L804.339,207.884L804.339,207.884z M800.162,197.073l-2.279-5.896
		l4.664-1.803l2.279,5.896L800.162,197.073L800.162,197.073z M795.984,186.262l-2.278-5.896l4.664-1.804l2.278,5.897
		L795.984,186.262L795.984,186.262z M791.807,175.451l-2.277-5.897l4.664-1.803l2.277,5.896L791.807,175.451L791.807,175.451z"/>
	<polygon points="807.319,215.597 806.238,212.799 810.902,210.996 811.983,213.794 	"/>
</g>
<g>
	<path d="M951.608,249.244h3.601l-15.588,33.407h-3.602L951.608,249.244z"/>
	<path d="M960.536,275.992c-1.8-1.823-2.699-4.225-2.699-7.199c0-2.978,0.923-5.353,2.771-7.129c1.848-1.775,4.05-2.664,6.605-2.664
		c2.557,0,4.613,1.08,6.174,3.24v-10.513h4.032v26.712h-4.032v-2.88c-1.487,2.112-3.659,3.168-6.517,3.168
		C964.448,278.729,962.337,277.816,960.536,275.992z M961.868,268.955c0,1.836,0.588,3.33,1.765,4.48
		c1.176,1.151,2.557,1.729,4.141,1.729s2.928-0.581,4.031-1.746c1.104-1.164,1.656-2.657,1.656-4.481
		c0-1.822-0.553-3.349-1.656-4.571c-1.104-1.225-2.461-1.837-4.067-1.837c-1.608,0-2.988,0.612-4.141,1.837
		C962.444,265.588,961.868,267.119,961.868,268.955z"/>
	<path d="M1001.072,270.629H986.06c0.097,1.392,0.732,2.514,1.908,3.365c1.177,0.853,2.521,1.277,4.032,1.277
		c2.399,0,4.224-0.756,5.472-2.269l2.306,2.521c-2.064,2.137-4.752,3.204-8.064,3.204c-2.688,0-4.975-0.895-6.857-2.682
		c-1.885-1.788-2.825-4.188-2.825-7.201c0-3.011,0.959-5.404,2.88-7.182c1.92-1.775,4.182-2.664,6.786-2.664
		c2.604,0,4.816,0.787,6.642,2.357c1.823,1.572,2.736,3.738,2.736,6.498v2.774H1001.072z M986.06,267.461h10.98
		c0-1.607-0.504-2.845-1.512-3.709c-1.01-0.863-2.25-1.295-3.728-1.295c-1.476,0-2.802,0.449-3.978,1.35
		C986.646,264.707,986.06,265.925,986.06,267.461z"/>
	<path d="M1023.32,270.629h-15.014c0.097,1.392,0.732,2.514,1.908,3.365c1.176,0.853,2.521,1.277,4.032,1.277
		c2.399,0,4.224-0.756,5.472-2.269l2.306,2.521c-2.064,2.137-4.753,3.204-8.064,3.204c-2.688,0-4.975-0.895-6.858-2.682
		c-1.884-1.788-2.824-4.188-2.824-7.201c0-3.011,0.959-5.404,2.88-7.182c1.92-1.775,4.182-2.664,6.786-2.664
		c2.604,0,4.816,0.787,6.642,2.357c1.823,1.572,2.736,3.738,2.736,6.498L1023.32,270.629L1023.32,270.629z M1008.308,267.461h10.98
		c0-1.607-0.504-2.845-1.512-3.709c-1.01-0.863-2.25-1.295-3.728-1.295c-1.476,0-2.802,0.449-3.978,1.35
		C1008.896,264.707,1008.308,265.925,1008.308,267.461z"/>
	<path d="M1038.008,259c2.568,0,4.765,0.889,6.588,2.664c1.824,1.776,2.736,4.141,2.736,7.092c0,2.953-0.906,5.353-2.718,7.201
		c-1.812,1.848-3.924,2.771-6.336,2.771s-4.578-1.056-6.498-3.168v9.863h-4.032v-26.135h4.032v3.348
		C1033.364,260.213,1035.439,259,1038.008,259z M1031.708,268.9c0,1.824,0.552,3.318,1.656,4.482
		c1.104,1.164,2.448,1.746,4.032,1.746s2.963-0.576,4.14-1.729c1.176-1.151,1.764-2.646,1.764-4.481s-0.576-3.359-1.728-4.572
		c-1.152-1.211-2.532-1.817-4.142-1.817c-1.606,0-2.964,0.606-4.066,1.817C1032.26,265.559,1031.708,267.076,1031.708,268.9z"/>
	<path d="M1051.615,269.584v-3.779h11.952v3.779H1051.615z"/>
	<path d="M1073.108,278.44h-4.032v-26.712h4.032V278.44z"/>
	<path d="M1079.191,255.473c-0.504-0.504-0.756-1.104-0.756-1.801c0-0.695,0.252-1.295,0.756-1.799s1.104-0.757,1.8-0.757
		s1.296,0.253,1.8,0.757c0.505,0.504,0.757,1.104,0.757,1.799c0,0.697-0.252,1.297-0.757,1.801c-0.504,0.504-1.104,0.756-1.8,0.756
		S1079.695,255.977,1079.191,255.473z M1082.972,278.44h-4.031v-19.15h4.031V278.44z"/>
	<path d="M1092.835,268.073v10.367h-4.032v-19.15h4.032v3.491c0.647-1.176,1.542-2.101,2.682-2.772
		c1.141-0.671,2.37-1.008,3.69-1.008c2.16,0,3.905,0.66,5.237,1.979c1.332,1.32,1.998,3.229,1.998,5.726v11.734h-4.031v-10.513
		c0-3.527-1.465-5.291-4.394-5.291c-1.392,0-2.604,0.462-3.636,1.386C1093.351,264.948,1092.835,266.297,1092.835,268.073z"/>
	<path d="M1116.091,278.44h-4.032v-26.712h4.032v15.695l7.775-8.135h5.185l-7.271,7.596l7.812,11.556h-4.896l-5.688-8.388
		l-2.916,2.951V278.44L1116.091,278.44z"/>
</g>
<path d="M153.949,249.49c-17.802,0-32.285-14.483-32.285-32.285c0-17.803,14.483-32.285,32.285-32.285
	c17.802,0,32.285,14.482,32.285,32.285C186.234,235.007,171.751,249.49,153.949,249.49L153.949,249.49z M153.949,192.92
	c-13.391,0-24.285,10.895-24.285,24.285c0,13.39,10.894,24.285,24.285,24.285c13.391,0,24.285-10.896,24.285-24.285
	C178.234,203.815,167.34,192.92,153.949,192.92L153.949,192.92z"/>
<path d="M243.329,191.862c-17.802,0-32.285-14.482-32.285-32.284c0-17.803,14.483-32.285,32.285-32.285
	c17.802,0,32.285,14.482,32.285,32.285C275.614,177.379,261.131,191.862,243.329,191.862L243.329,191.862z M243.329,135.292
	c-13.391,0-24.285,10.894-24.285,24.285c0,13.391,10.894,24.284,24.285,24.284s24.285-10.895,24.285-24.284
	C267.614,146.187,256.72,135.292,243.329,135.292L243.329,135.292z"/>
<g>
	<path d="M147.626,116.502h-4.832V84.44h6.935l4.503,23.032l4.323-23.032h6.662v32.062h-4.833V96.354l-4.193,20.148h-3.886
		l-4.68-20.097L147.626,116.502L147.626,116.502z"/>
</g>
<path d="M153.949,134.016c-17.802,0-32.285-14.482-32.285-32.285c0-17.802,14.483-32.285,32.285-32.285
	c17.802,0,32.285,14.483,32.285,32.285C186.234,119.533,171.751,134.016,153.949,134.016L153.949,134.016z M153.949,77.446
	c-13.391,0-24.285,10.895-24.285,24.285c0,13.392,10.894,24.285,24.285,24.285c13.391,0,24.285-10.894,24.285-24.285
	C178.234,88.34,167.34,77.446,153.949,77.446L153.949,77.446z"/>
<path d="M1229.408,164.939h-118.315V35.728h97.021l20.976,26.729L1229.408,164.939L1229.408,164.939z M1119.093,156.939h102.29
	l-0.286-91.707l-16.874-21.505h-85.13V156.939L1119.093,156.939z"/>
<g>
	<path d="M333.559,126.381h3.601l-15.588,33.408h-3.601L333.559,126.381z"/>
	<path d="M351.054,140.205c-1.992,0-3.492,0.647-4.5,1.943s-1.512,3.037-1.512,5.221v8.208h-4.032v-19.152h4.032v3.852
		c0.648-1.199,1.53-2.184,2.646-2.951c1.116-0.769,2.298-1.164,3.547-1.188l0.035,4.068
		C351.198,140.205,351.126,140.205,351.054,140.205z"/>
	<path d="M371.322,153.003c-1.92,1.908-4.32,2.862-7.2,2.862s-5.28-0.954-7.2-2.862c-1.92-1.907-2.88-4.242-2.88-7.002
		c0-2.759,0.96-5.094,2.88-7.002s4.32-2.862,7.2-2.862s5.28,0.954,7.2,2.862s2.88,4.243,2.88,7.002
		C374.202,148.761,373.242,151.096,371.322,153.003z M359.784,150.52c1.14,1.164,2.586,1.746,4.338,1.746s3.198-0.582,4.338-1.746
		s1.71-2.67,1.71-4.519s-0.57-3.354-1.71-4.519c-1.141-1.164-2.586-1.746-4.338-1.746s-3.198,0.582-4.338,1.746
		c-1.141,1.165-1.71,2.67-1.71,4.519S358.644,149.355,359.784,150.52z"/>
	<path d="M392.166,146.793v-10.368h4.032v19.152h-4.032v-3.492c-0.648,1.177-1.542,2.101-2.682,2.771
		c-1.141,0.672-2.37,1.009-3.69,1.009c-2.16,0-3.906-0.66-5.238-1.98c-1.332-1.319-1.998-3.227-1.998-5.724v-11.736h4.032v10.512
		c0,3.528,1.464,5.292,4.393,5.292c1.392,0,2.604-0.461,3.636-1.385S392.166,148.569,392.166,146.793z"/>
	<path d="M406.997,139.665v9.72c0,0.912,0.24,1.638,0.72,2.177c0.48,0.541,1.152,0.812,2.017,0.812c0.863,0,1.691-0.42,2.483-1.26
		l1.656,2.844c-1.416,1.271-2.982,1.908-4.698,1.908s-3.18-0.595-4.392-1.782c-1.212-1.188-1.818-2.79-1.818-4.807v-9.611h-2.412
		v-3.24h2.412v-6.012h4.032v6.012h5.04v3.24H406.997L406.997,139.665z"/>
	<path d="M434.897,147.765h-15.013c0.097,1.393,0.732,2.514,1.908,3.366s2.52,1.278,4.032,1.278c2.398,0,4.224-0.757,5.472-2.27
		l2.304,2.521c-2.063,2.136-4.752,3.204-8.063,3.204c-2.688,0-4.975-0.896-6.858-2.683c-1.884-1.788-2.826-4.188-2.826-7.201
		c0-3.011,0.96-5.404,2.881-7.182c1.92-1.776,4.182-2.664,6.785-2.664c2.604,0,4.818,0.786,6.643,2.358
		c1.824,1.571,2.736,3.737,2.736,6.498V147.765z M419.885,144.597h10.98c0-1.606-0.504-2.844-1.512-3.708
		c-1.009-0.864-2.25-1.296-3.727-1.296c-1.476,0-2.802,0.45-3.978,1.35C420.473,141.843,419.885,143.062,419.885,144.597z"/>
</g>
<g>
	<path d="M711.155,153.719h-3.672v-2.557c-1.584,1.896-3.708,2.845-6.372,2.845c-1.992,0-3.643-0.563-4.949-1.692
		c-1.309-1.127-1.963-2.633-1.963-4.518c0-1.884,0.695-3.294,2.089-4.23c1.392-0.936,3.275-1.403,5.651-1.403h5.22v-0.721
		c0-2.544-1.416-3.815-4.247-3.815c-1.776,0-3.625,0.647-5.545,1.943l-1.8-2.52c2.327-1.848,4.968-2.772,7.92-2.772
		c2.256,0,4.098,0.57,5.525,1.711c1.429,1.14,2.143,2.934,2.143,5.382V153.719z M707.124,146.591v-1.62h-4.536
		c-2.904,0-4.355,0.913-4.355,2.736c0,0.936,0.359,1.649,1.08,2.142c0.72,0.492,1.722,0.738,3.006,0.738
		c1.283,0,2.405-0.36,3.365-1.08S707.124,147.815,707.124,146.591z"/>
	<path d="M716.771,154.619v-20.053h4.031v20.196c0,2.018-0.605,3.618-1.817,4.806c-1.212,1.188-2.677,1.782-4.393,1.782
		s-3.282-0.636-4.698-1.907l1.872-3.023c0.816,0.792,1.639,1.188,2.467,1.188c0.827,0,1.458-0.266,1.89-0.793
		C716.556,156.287,716.771,155.555,716.771,154.619z M716.951,130.751c-0.504-0.504-0.756-1.104-0.756-1.8
		c0-0.696,0.252-1.296,0.756-1.801c0.504-0.504,1.104-0.756,1.801-0.756c0.695,0,1.296,0.252,1.8,0.756
		c0.504,0.505,0.756,1.104,0.756,1.801c0,0.695-0.252,1.296-0.756,1.8s-1.104,0.756-1.8,0.756
		C718.055,131.507,717.455,131.255,716.951,130.751z"/>
	<path d="M742.15,153.719h-3.672v-2.557c-1.584,1.896-3.709,2.845-6.372,2.845c-1.992,0-3.643-0.563-4.949-1.692
		c-1.31-1.127-1.963-2.633-1.963-4.518c0-1.884,0.695-3.294,2.089-4.23c1.392-0.936,3.274-1.403,5.65-1.403h5.221v-0.721
		c0-2.544-1.416-3.815-4.247-3.815c-1.776,0-3.625,0.647-5.545,1.943l-1.8-2.52c2.327-1.848,4.968-2.772,7.92-2.772
		c2.256,0,4.098,0.57,5.525,1.711c1.428,1.14,2.143,2.934,2.143,5.382V153.719z M738.119,146.591v-1.62h-4.536
		c-2.904,0-4.356,0.913-4.356,2.736c0,0.936,0.36,1.649,1.08,2.142c0.721,0.492,1.723,0.738,3.006,0.738
		c1.284,0,2.406-0.36,3.366-1.08S738.119,147.815,738.119,146.591z"/>
	<path d="M750.826,134.567l4.104,6.301l4.248-6.301h4.788l-6.696,9.36l6.984,9.792h-4.969l-4.571-6.372l-4.464,6.372h-4.717
		l6.805-9.756l-6.443-9.396H750.826z"/>
</g>
<path fill="#EF4836" d="M870.639,251.771v-3.414h5.441l-10.441-24.832l-10.441,24.832h5.441v3.414
	c0,9.799,7.973,17.771,17.771,17.771h48.188v-10H878.41C874.124,259.541,870.639,256.055,870.639,251.771z"/>
<rect x="447.961" y="141.806" fill="#EF4836" width="25.499" height="10"/>
<path fill="#EF4836" d="M688.725,165.49h-22.414c-4.284,0-7.771-3.486-7.771-7.771s3.485-7.771,7.771-7.771h10.33v-10h-10.33
	c-9.799,0-17.771,7.972-17.771,17.771s7.972,17.771,17.771,17.771h22.414v5.441l24.833-10.441l-24.833-10.441V165.49z"/>
<rect x="772.722" y="139.948" fill="#EF4836" width="36.499" height="10"/>
<rect x="809.652" y="93.483" fill="none" stroke="#000000" stroke-width="8" stroke-miterlimit="10" width="110.303" height="121.213"/>
<polygon points="776.88,120.502 772.88,120.502 772.88,23.857 868.488,23.857 883.396,39.34 880.515,42.115 866.787,27.857 
	776.88,27.857 "/>
<polygon points="766.114,96.667 762.114,96.667 762.114,13.022 857.723,13.022 872.63,28.505 869.749,31.279 856.021,17.022 
	766.114,17.022 "/>
<polygon points="1101.093,44.502 1097.093,44.502 1097.093,22.857 1192.701,22.857 1207.608,38.34 1204.729,41.115 1191,26.857 
	1101.093,26.857 "/>
<polygon points="1090.327,50.667 1086.327,50.667 1086.327,12.022 1181.936,12.022 1196.843,27.505 1193.962,30.279 
	1180.234,16.022 1090.327,16.022 "/>
<line fill="none" stroke="#BCBEC0" stroke-miterlimit="10" x1="577.972" y1="0" x2="577.972" y2="296.985"/>
</svg>
