<?xml version="1.0" encoding="utf-8"?>
<!-- Generator: Adobe Illustrator 14.0.0, SVG Export Plug-In . SVG Version: 6.00 Build 43363)  -->
<!DOCTYPE svg PUBLIC "-//W3C//DTD SVG 1.1//EN" "http://www.w3.org/Graphics/SVG/1.1/DTD/svg11.dtd">
<svg version="1.1" id="Layer_1" xmlns="http://www.w3.org/2000/svg" xmlns:xlink="http://www.w3.org/1999/xlink" x="0px" y="0px"
	 width="877px" height="331.121px" viewBox="0 0 877 331.121" enable-background="new 0 0 877 331.121" xml:space="preserve">
<g>
	<path fill="#010101" d="M174.292,141.07l6,4c0,0-17,1.332-26.667,6c1.611,5.192,5.667,8.332,11.334,7.332
		c5.666-1,6.196-4.657,7-10.666l3.666-0.334c-0.333,7.668-1.666,12.668-10.666,14c-9,1.334-11-5-13.334-9.666
		c-0.861-0.25-0.753-2.309,0-3C151.625,148.736,157.625,145.07,174.292,141.07"/>
	<path fill="#010101" d="M148.625,151.828c0,0-1.667,13.573-12.333,11.907c-10.667-1.666-9.334-7.15-9.667-11.907h3.333
		c-0.39,4.437,0.153,7.271,6,8.757c5.847,1.481,10.667-2.334,11-8.757c0,0-12.666-2.427-24-1.427l3.334-4.666
		c0,0,18.333,1.666,23.333,3C149.94,149.912,149.879,151.002,148.625,151.828"/>
	<path fill="#010101" d="M145.264,152.899c-0.22,2.168-3.071,3.651-6.369,3.317c-3.297-0.335-5.791-2.362-5.569-4.53
		c0.22-2.17,3.069-3.654,6.368-3.318C142.991,148.704,145.484,150.731,145.264,152.899"/>
	<path fill="#010101" d="M167.693,149.585c0.396,2.145-1.922,4.37-5.18,4.979c-3.259,0.604-6.224-0.642-6.621-2.781
		c-0.397-2.145,1.92-4.369,5.18-4.979C164.329,146.197,167.294,147.443,167.693,149.585"/>
	<path fill="#010101" d="M135.792,175.236c4.501-5.476,9.167-8.332,15.833-8.666c6.667-0.334,11,3.834,14.334,6.166
		C155.625,170.736,147.153,169.098,135.792,175.236"/>
	<path fill="#010101" d="M150.875,188.667c-19.896,0-36.084-16.188-36.084-36.083c0-19.895,16.188-36.083,36.084-36.083
		s36.083,16.188,36.083,36.083C186.958,172.479,170.772,188.667,150.875,188.667L150.875,188.667z M150.875,120.502
		c-17.691,0-32.084,14.394-32.084,32.083c0,17.688,14.393,32.083,32.084,32.083c17.688,0,32.083-14.395,32.083-32.083
		C182.958,134.896,168.568,120.502,150.875,120.502L150.875,120.502z"/>
</g>
<g>
	<path fill="#010101" d="M714.72,176.373c-0.428,1.41-4.459,2.738-7.985,1.67c-3.527-1.066-5.216-4.129-4.787-5.539
		c0.426-1.41,3.481,0.271,7.008,1.336C712.482,174.91,715.146,174.962,714.72,176.373"/>
	<g>
		<path fill="#010101" d="M713.875,188.667c-19.896,0-36.084-16.188-36.084-36.083c0-19.895,16.189-36.083,36.084-36.083
			c19.896,0,36.084,16.188,36.084,36.083C749.958,172.48,733.773,188.667,713.875,188.667L713.875,188.667z M713.875,120.502
			c-17.689,0-32.084,14.394-32.084,32.083c0,17.688,14.395,32.083,32.084,32.083c17.691,0,32.084-14.395,32.084-32.083
			C745.959,134.896,731.566,120.502,713.875,120.502L713.875,120.502z"/>
	</g>
	<path fill="#010101" d="M741.529,146.683c-0.019-0.128-0.111-0.231-0.238-0.263c-6.699-1.605-13.574-1.831-19.873-0.643
		c-0.896,0.169-1.799,0.407-2.666,0.64c-1.322,0.352-2.57,0.684-3.832,0.793c-2.391,0.203-4.178-0.293-6.076-0.82
		c-0.776-0.217-1.58-0.438-2.43-0.611c-3.018-0.605-6.322-0.927-9.562-0.927c-3.774,0-7.452,0.433-10.641,1.251
		c-0.137,0.036-0.234,0.161-0.234,0.305c0,1.324,0.105,2.44,0.33,3.42c0.109,0.438,0.478,0.602,0.72,0.707
		c0.073,0.033,0.151,0.067,0.182,0.092c0.781,0.64,1.064,2.342,1.314,3.847c0.104,0.626,0.2,1.217,0.332,1.723
		c0.834,3.308,2.062,5.294,3.979,6.448c1.242,0.739,3.086,1.147,5.188,1.147c4.362,0,9.614-1.771,11.53-5.764
		c0.98-1.33,1.974-4.253,3.086-5.547c0.104-0.125,0.5-0.259,1.113-0.259c0.559,0,1.029,0.115,1.195,0.233
		c0.658,1.047,1.074,1.919,1.479,2.763c0.521,1.089,1.008,2.117,1.937,3.316c3.434,4.445,7.727,5.381,10.725,5.381h0.033
		c1.021-0.002,4.496-0.104,6.379-1.326c2.223-1.438,2.752-4.269,3.266-7.005c0.281-1.52,0.58-3.089,1.156-4.456
		c0.029-0.084,0.191-0.129,0.414-0.185c0.314-0.076,0.746-0.182,0.879-0.654C741.384,149.474,741.667,147.669,741.529,146.683
		 M692.275,150.574c-1.222,2.586-1.035,6.097-0.541,8.689c-0.683-2.022-1.191-4.623-1.154-6.27c0.086-3.748,1.598-4.821,4.572-5.387
		C694.025,148.247,692.927,149.188,692.275,150.574 M720.679,149.654c-1.028,1.219-1.659,2.383-1.985,3.741
		c-0.205-1.551-0.15-3.223,0.836-4.146c0.627-0.583,2.143-1.146,3.918-1.588C722.257,148.333,721.285,149.083,720.679,149.654"/>
</g>
<path fill="#EF4836" d="M716.21,69.211c-0.865,3.034-8.027,15.833,0.437,15.615C722.835,84.668,720.55,77.888,716.21,69.211z"/>
<path fill="#EF4836" d="M723.693,85.802c-0.867,3.033-8.027,15.833,0.436,15.614C730.318,101.259,728.031,94.478,723.693,85.802z"/>
<path fill="#EF4836" d="M711.001,90.249c-0.865,3.034-8.027,15.833,0.436,15.615C717.625,105.706,715.339,98.926,711.001,90.249z"/>
<path stroke="#FFFFFF" d="M816.667,48.639c0.115-4.666,1.018-9.592,1.973-14.43c2.357-11.94,5.291-26.803-11.411-30.279
	c-4.076-0.839-7.959-0.158-11.232,1.982c-3.406,2.236-6.064,6.058-8.047,11.213c-0.65,0.107-1.301,0.305-1.906,0.604
	c-1.736,0.87-24.723,16.916-26.455,18.217c-1.731,1.301-5.205,2.603-1.736,7.808c3.47,5.205,6.634,11.029,4.771,12.143
	c-1.088,0.65-26.461,2.389-29.494,1.733c0.43-1.947-1.305-8.021-5.641-5.638c-3.041,1.672-6.506,18.218-1.302,19.951
	c5.205,1.733,5.638-5.637,6.941-5.637c2.17,0,35.562,2.17,35.562,2.17c5.199,1.739,9.113,6.938,9.982,8.672
	c0.869,1.733,4.336,5.205,6.938,3.472c12.764-8.499,31.661-21.689,32.961-23.854c1.303-2.166,2.172-2.602,0.438-5.204
	C818.74,51.155,817.873,50.083,816.667,48.639z M800.281,12.445c1.539-1.022,3.313-1.286,5.352-0.869
	c8.392,1.748,8.158,6.887,5.349,21.124c-0.484,2.45-0.978,5.012-1.384,7.62c-5.312-6.207-11.567-13.46-15.248-17.856
	C795.812,17.573,797.851,14.036,800.281,12.445z"/>
<path stroke="#FFFFFF" d="M108.68,38.96l0.043-13.783c0.032-10.131-8.184-18.404-18.32-18.436C80.271,6.709,72,14.93,71.968,25.061
	l-0.043,13.783c-5.075-0.016-9.202,4.085-9.218,9.16l-0.072,22.972c-0.016,5.074,4.085,9.201,9.16,9.217l36.755,0.115
	c5.074,0.016,9.202-4.085,9.217-9.16l0.072-22.972C117.856,43.103,113.755,38.976,108.68,38.96z M92.53,61.177l-0.024,7.596
	c-0.004,1.27-1.034,2.294-2.305,2.29c-1.27-0.004-2.293-1.035-2.29-2.305l0.024-7.596c-1.346-0.803-2.291-2.214-2.285-3.897
	c0.008-2.54,2.071-4.588,4.608-4.58c2.537,0.008,4.588,2.069,4.581,4.609C94.835,58.976,93.881,60.382,92.53,61.177z M99.491,38.931
	l-18.377-0.058l0.043-13.783c0.016-5.07,4.149-9.176,9.217-9.16c5.065,0.016,9.176,4.147,9.16,9.218L99.491,38.931z"/>
<polygon fill="#EF4836" points="120.708,84.241 125.708,98.574 120.375,97.908 134.375,113.241 130.375,101.241 135.708,101.908 "/>
<g enable-background="new    ">
	<path d="M76.291,216.794v3.288h-7.776v3.624h7.392v3.288h-7.392v6.576h-3.744v-16.776H76.291z"/>
	<path d="M79.398,219.016c-0.408-0.408-0.612-0.908-0.612-1.5c0-0.593,0.204-1.094,0.612-1.5c0.408-0.408,0.908-0.613,1.5-0.613
		c0.592,0,1.092,0.205,1.5,0.613c0.408,0.406,0.612,0.907,0.612,1.5c0,0.592-0.204,1.092-0.612,1.5
		c-0.408,0.406-0.908,0.61-1.5,0.61C80.306,219.626,79.807,219.422,79.398,219.016z M82.699,233.57h-3.6v-12.911h3.6V233.57z"/>
	<path d="M89.25,220.659l2.208,3.456l2.28-3.456h4.224l-4.44,6.312l4.608,6.6h-4.296l-2.52-3.551l-2.448,3.551h-4.152l4.512-6.575
		l-4.272-6.336H89.25z"/>
	<path d="M111.33,231.699c-1.457,1.376-3.165,2.064-5.124,2.064c-1.96,0-3.58-0.604-4.86-1.812c-1.28-1.208-1.92-2.828-1.92-4.86
		c0-2.03,0.652-3.647,1.956-4.848c1.304-1.2,2.844-1.8,4.62-1.8s3.284,0.535,4.524,1.607c1.24,1.071,1.86,2.544,1.86,4.416v1.92
		h-9.408c0.112,0.704,0.48,1.28,1.104,1.729c0.624,0.447,1.328,0.672,2.112,0.672c1.264,0,2.304-0.424,3.12-1.271L111.33,231.699z
		 M107.874,224.042c-0.496-0.416-1.101-0.624-1.812-0.624c-0.712,0-1.364,0.217-1.956,0.648c-0.592,0.432-0.936,1.017-1.032,1.752
		h5.664C108.658,225.051,108.37,224.459,107.874,224.042z"/>
	<path d="M120.15,233.764c-1.528,0-2.892-0.648-4.092-1.945c-1.2-1.295-1.8-2.903-1.8-4.823s0.584-3.492,1.752-4.716
		c1.168-1.225,2.536-1.836,4.104-1.836c1.568,0,2.848,0.552,3.84,1.656v-6.336h3.6v17.807h-3.6v-1.703
		C122.946,233.131,121.678,233.764,120.15,233.764z M117.882,227.139c0,1.041,0.312,1.893,0.936,2.557s1.352,0.996,2.184,0.996
		s1.54-0.332,2.124-0.996s0.876-1.521,0.876-2.568s-0.292-1.92-0.876-2.615s-1.3-1.044-2.148-1.044s-1.576,0.353-2.184,1.056
		S117.882,226.1,117.882,227.139z"/>
	<path d="M152.681,223.011l-4.536,9.169h-2.232l-4.512-9.169v10.56h-3.744v-16.775h5.064l4.32,9.217l4.344-9.217h5.04v16.775h-3.744
		V223.011z"/>
	<path d="M160.493,219.016c-0.408-0.408-0.612-0.908-0.612-1.5c0-0.593,0.204-1.094,0.612-1.5c0.408-0.408,0.908-0.613,1.5-0.613
		c0.592,0,1.092,0.205,1.5,0.613c0.408,0.406,0.612,0.907,0.612,1.5c0,0.592-0.204,1.092-0.612,1.5
		c-0.408,0.406-0.908,0.61-1.5,0.61C161.401,219.626,160.901,219.422,160.493,219.016z M163.793,233.57h-3.6v-12.911h3.6V233.57z"/>
	<path d="M170.801,226.371v7.199h-3.6v-12.911h3.6v1.44c1.088-1.104,2.312-1.656,3.672-1.656c1.36,0,2.5,0.479,3.42,1.438
		c0.92,0.961,1.38,2.241,1.38,3.841v7.848h-3.6v-7.295c0-1.983-0.728-2.978-2.184-2.978c-0.72,0-1.348,0.261-1.884,0.78
		C171.069,224.6,170.801,225.363,170.801,226.371z"/>
	<path d="M187.709,233.764c-1.528,0-2.892-0.648-4.092-1.945c-1.2-1.295-1.8-2.903-1.8-4.823s0.584-3.492,1.752-4.716
		c1.168-1.225,2.536-1.836,4.104-1.836c1.568,0,2.848,0.552,3.84,1.656v-6.336h3.6v17.807h-3.6v-1.703
		C190.505,233.131,189.237,233.764,187.709,233.764z M185.441,227.139c0,1.041,0.312,1.893,0.936,2.557s1.352,0.996,2.184,0.996
		s1.54-0.332,2.124-0.996s0.876-1.521,0.876-2.568s-0.292-1.92-0.876-2.615s-1.3-1.044-2.148-1.044
		c-0.848,0-1.576,0.353-2.184,1.056S185.441,226.1,185.441,227.139z"/>
	<path d="M208.241,229.551c0,1.271-0.468,2.292-1.404,3.061c-0.936,0.768-2.124,1.152-3.564,1.152c-0.96,0-1.96-0.174-3-0.518
		c-1.041-0.344-1.976-0.852-2.808-1.523l1.584-2.256c1.344,1.04,2.776,1.561,4.296,1.561c0.464,0,0.832-0.092,1.104-0.276
		c0.272-0.185,0.408-0.428,0.408-0.731c0-0.303-0.188-0.584-0.564-0.84s-0.92-0.496-1.632-0.721s-1.256-0.416-1.632-0.576
		c-0.376-0.158-0.804-0.392-1.284-0.695c-0.977-0.607-1.464-1.508-1.464-2.699s0.48-2.164,1.44-2.916s2.2-1.129,3.72-1.129
		s3.04,0.513,4.56,1.537l-1.344,2.398c-1.12-0.768-2.236-1.15-3.348-1.15c-1.112,0-1.668,0.304-1.668,0.912
		c0,0.336,0.176,0.6,0.528,0.791s0.936,0.416,1.752,0.672s1.396,0.453,1.74,0.588c0.344,0.137,0.756,0.349,1.236,0.637
		C207.793,227.371,208.241,228.279,208.241,229.551z"/>
	<path d="M222.185,231.699c-1.457,1.376-3.165,2.064-5.124,2.064c-1.96,0-3.58-0.604-4.86-1.812c-1.28-1.208-1.92-2.828-1.92-4.86
		c0-2.03,0.652-3.647,1.956-4.848c1.304-1.2,2.844-1.8,4.62-1.8s3.284,0.535,4.524,1.607c1.24,1.071,1.86,2.544,1.86,4.416v1.92
		h-9.408c0.112,0.704,0.48,1.28,1.104,1.729c0.624,0.447,1.328,0.672,2.112,0.672c1.264,0,2.304-0.424,3.12-1.271L222.185,231.699z
		 M218.729,224.042c-0.496-0.416-1.101-0.624-1.812-0.624c-0.712,0-1.364,0.217-1.956,0.648c-0.592,0.432-0.936,1.017-1.032,1.752
		h5.664C219.512,225.051,219.224,224.459,218.729,224.042z"/>
	<path d="M229.984,223.25v5.784c0,0.496,0.128,0.885,0.384,1.164c0.256,0.28,0.56,0.42,0.912,0.42c0.672,0,1.24-0.304,1.704-0.912
		l1.344,2.521c-1.121,1.023-2.3,1.537-3.54,1.537c-1.24,0-2.289-0.408-3.144-1.226c-0.856-0.815-1.284-1.929-1.284-3.336v-5.952
		h-1.512v-2.592h1.512v-3.864h3.624v3.864h3.12v2.592H229.984z"/>
	<path d="M43.771,276.314c0.448,0.287,0.672,0.677,0.672,1.164s-0.144,0.873-0.432,1.151c-0.288,0.28-0.648,0.42-1.08,0.42
		c-0.432,0-0.796-0.136-1.092-0.407s-0.444-0.627-0.444-1.067s0.144-0.868,0.432-1.284l1.416-2.04h1.464L43.771,276.314z
		 M47.443,276.314c0.448,0.287,0.672,0.677,0.672,1.164s-0.144,0.873-0.432,1.151c-0.288,0.28-0.648,0.42-1.08,0.42
		s-0.796-0.136-1.092-0.407c-0.296-0.271-0.444-0.627-0.444-1.067s0.144-0.868,0.432-1.284l1.416-2.04h1.464L47.443,276.314z"/>
	<path d="M51.763,274.395h2.832v16.775h-2.832V274.395z"/>
	<path d="M77.25,278.402v11.137c0,2.256-0.612,3.947-1.836,5.076c-1.224,1.128-2.796,1.691-4.716,1.691
		c-1.92,0-3.656-0.601-5.208-1.801l1.272-2.04c1.248,0.944,2.508,1.416,3.78,1.416s2.28-0.327,3.024-0.983s1.116-1.703,1.116-3.145
		v-1.632c-0.4,0.752-0.972,1.353-1.716,1.8c-0.744,0.448-1.58,0.672-2.508,0.672c-1.696,0-3.088-0.592-4.176-1.775
		c-1.088-1.185-1.632-2.655-1.632-4.416c0-1.76,0.544-3.231,1.632-4.416c1.088-1.185,2.476-1.775,4.164-1.775
		s3.06,0.696,4.116,2.088v-1.896H77.25z M67.291,284.294c0,1.048,0.324,1.952,0.972,2.712s1.52,1.141,2.616,1.141
		c1.096,0,1.984-0.367,2.664-1.104c0.68-0.735,1.02-1.651,1.02-2.748c0-1.096-0.344-2.022-1.032-2.784
		c-0.688-0.76-1.576-1.14-2.664-1.14c-1.088,0-1.956,0.392-2.604,1.176S67.291,283.247,67.291,284.294z"/>
	<path d="M91.818,289.455c-1.28,1.271-2.88,1.908-4.8,1.908s-3.521-0.637-4.8-1.908c-1.28-1.271-1.92-2.828-1.92-4.668
		s0.64-3.396,1.92-4.668c1.28-1.271,2.88-1.908,4.8-1.908s3.52,0.637,4.8,1.908c1.28,1.271,1.92,2.828,1.92,4.668
		S93.098,288.182,91.818,289.455z M84.126,287.798c0.76,0.776,1.724,1.164,2.892,1.164c1.167,0,2.132-0.388,2.892-1.164
		c0.76-0.774,1.14-1.778,1.14-3.012s-0.38-2.236-1.14-3.013c-0.76-0.775-1.724-1.164-2.892-1.164s-2.132,0.389-2.892,1.164
		c-0.76,0.775-1.14,1.779-1.14,3.013S83.366,287.023,84.126,287.798z"/>
	<path d="M99.906,280.562v6.479c0,0.608,0.16,1.092,0.48,1.452c0.32,0.359,0.768,0.54,1.344,0.54s1.128-0.28,1.656-0.841
		l1.104,1.896c-0.944,0.85-1.988,1.271-3.132,1.271s-2.12-0.396-2.928-1.188c-0.808-0.792-1.212-1.859-1.212-3.203v-6.408H95.61
		v-2.159h1.608v-4.009h2.688v4.009h3.36v2.159H99.906L99.906,280.562z"/>
	<path d="M123.546,291.17h-2.448v-1.704c-1.056,1.265-2.472,1.896-4.248,1.896c-1.328,0-2.428-0.375-3.3-1.127
		c-0.872-0.752-1.308-1.756-1.308-3.014c0-1.256,0.464-2.195,1.392-2.818c0.928-0.625,2.184-0.938,3.768-0.938h3.48v-0.479
		c0-1.696-0.944-2.545-2.832-2.545c-1.184,0-2.416,0.433-3.696,1.297l-1.2-1.682c1.552-1.23,3.312-1.848,5.28-1.848
		c1.504,0,2.732,0.38,3.684,1.141c0.952,0.76,1.428,1.955,1.428,3.588V291.17z M120.858,286.418v-1.08h-3.024
		c-1.937,0-2.904,0.607-2.904,1.824c0,0.624,0.24,1.1,0.72,1.428s1.148,0.492,2.004,0.492s1.604-0.24,2.244-0.721
		C120.538,287.882,120.858,287.234,120.858,286.418z"/>
	<path d="M141.593,291.17h-7.344v-16.775h6.528c1.136,0,2.116,0.137,2.94,0.407c0.824,0.272,1.436,0.642,1.836,1.104
		c0.768,0.863,1.152,1.84,1.152,2.928c0,1.312-0.417,2.288-1.248,2.928c-0.304,0.225-0.512,0.364-0.624,0.42
		c-0.112,0.058-0.312,0.148-0.6,0.276c1.04,0.226,1.868,0.692,2.484,1.403c0.616,0.713,0.924,1.597,0.924,2.652
		c0,1.168-0.4,2.199-1.2,3.096C145.497,290.65,143.881,291.17,141.593,291.17z M137.082,281.354h3.6
		c2.048,0,3.072-0.694,3.072-2.088c0-0.8-0.248-1.375-0.744-1.728c-0.496-0.353-1.264-0.528-2.304-0.528h-3.624V281.354
		L137.082,281.354z M137.082,288.555h4.44c1.04,0,1.836-0.164,2.388-0.492c0.552-0.328,0.828-0.947,0.828-1.859
		c0-1.488-1.192-2.232-3.576-2.232h-4.08V288.555z"/>
	<path d="M164.225,278.21c1.712,0,3.176,0.592,4.392,1.776c1.216,1.184,1.824,2.76,1.824,4.728s-0.604,3.568-1.812,4.8
		c-1.208,1.232-2.616,1.85-4.224,1.85c-1.608,0-3.052-0.704-4.332-2.112v1.92h-2.688v-17.808h2.688v7.271
		C161.129,279.018,162.513,278.21,164.225,278.21z M160.025,284.811c0,1.217,0.368,2.213,1.104,2.987
		c0.736,0.776,1.632,1.164,2.688,1.164c1.056,0,1.976-0.384,2.76-1.151c0.784-0.769,1.176-1.765,1.176-2.987
		c0-1.226-0.384-2.24-1.152-3.05c-0.768-0.808-1.688-1.211-2.76-1.211c-1.072,0-1.976,0.403-2.712,1.211
		C160.393,282.583,160.025,283.594,160.025,284.811z"/>
	<path d="M185.393,285.962h-10.008c0.064,0.929,0.488,1.677,1.272,2.244c0.784,0.567,1.68,0.853,2.688,0.853
		c1.6,0,2.816-0.504,3.648-1.513l1.536,1.681c-1.376,1.424-3.168,2.137-5.376,2.137c-1.792,0-3.316-0.598-4.572-1.788
		c-1.256-1.192-1.884-2.792-1.884-4.802c0-2.006,0.64-3.604,1.92-4.787c1.28-1.185,2.788-1.775,4.524-1.775
		c1.736,0,3.212,0.523,4.428,1.572c1.216,1.048,1.824,2.492,1.824,4.332V285.962L185.393,285.962z M175.385,283.85h7.32
		c0-1.07-0.336-1.896-1.008-2.472c-0.672-0.575-1.5-0.864-2.484-0.864s-1.868,0.301-2.652,0.9S175.385,282.827,175.385,283.85z"/>
	<path d="M194.009,291.363c-1.776,0-3.304-0.604-4.584-1.812c-1.28-1.208-1.92-2.787-1.92-4.74c0-1.951,0.668-3.539,2.004-4.764
		c1.336-1.224,2.964-1.836,4.884-1.836s3.543,0.664,4.872,1.992l-1.584,1.943c-1.104-0.961-2.216-1.439-3.336-1.439
		c-1.12,0-2.092,0.372-2.916,1.116c-0.824,0.743-1.236,1.704-1.236,2.88s0.408,2.172,1.224,2.986
		c0.816,0.816,1.82,1.226,3.012,1.226c1.192,0,2.316-0.544,3.372-1.632l1.584,1.729
		C197.833,290.579,196.041,291.363,194.009,291.363z"/>
	<path d="M212.417,291.17h-2.448v-1.704c-1.056,1.265-2.472,1.896-4.248,1.896c-1.328,0-2.428-0.375-3.3-1.127
		s-1.308-1.756-1.308-3.014c0-1.256,0.464-2.195,1.392-2.818c0.928-0.625,2.184-0.938,3.768-0.938h3.48v-0.479
		c0-1.696-0.944-2.545-2.832-2.545c-1.184,0-2.416,0.433-3.696,1.297l-1.2-1.682c1.552-1.23,3.312-1.848,5.28-1.848
		c1.504,0,2.732,0.38,3.684,1.141c0.952,0.76,1.428,1.955,1.428,3.588V291.17z M209.729,286.418v-1.08h-3.024
		c-1.937,0-2.904,0.607-2.904,1.824c0,0.624,0.24,1.1,0.72,1.428s1.148,0.492,2.004,0.492s1.604-0.24,2.244-0.721
		C209.408,287.882,209.729,287.234,209.729,286.418z"/>
	<path d="M225.088,285.314v-6.912h2.688v12.769h-2.688v-2.328c-0.432,0.784-1.028,1.4-1.788,1.849
		c-0.76,0.447-1.58,0.672-2.46,0.672c-1.44,0-2.604-0.439-3.492-1.319c-0.888-0.88-1.332-2.151-1.332-3.815v-7.824h2.688v7.009
		c0,2.353,0.976,3.526,2.928,3.526c0.928,0,1.736-0.308,2.424-0.924C224.744,287.398,225.088,286.499,225.088,285.314z"/>
	<path d="M240.76,287.354c0,1.217-0.44,2.188-1.32,2.916c-0.88,0.729-2.008,1.094-3.384,1.094c-0.928,0-1.892-0.168-2.892-0.504
		c-1-0.338-1.884-0.81-2.652-1.416l1.296-2.09c1.488,1.121,2.928,1.682,4.32,1.682c0.608,0,1.088-0.141,1.44-0.42
		c0.352-0.28,0.528-0.637,0.528-1.068c0-0.64-0.848-1.216-2.544-1.729c-0.128-0.049-0.224-0.079-0.288-0.096
		c-2.656-0.721-3.984-1.921-3.984-3.601c0-1.185,0.459-2.132,1.38-2.845c0.92-0.711,2.116-1.067,3.588-1.067
		s2.864,0.433,4.176,1.296l-1.008,1.992c-1.04-0.688-2.168-1.032-3.384-1.032c-0.64,0-1.16,0.116-1.56,0.349
		c-0.4,0.231-0.6,0.58-0.6,1.045c0,0.416,0.208,0.72,0.624,0.91c0.288,0.146,0.692,0.28,1.212,0.408
		c0.52,0.129,0.98,0.256,1.38,0.385c0.399,0.129,0.788,0.271,1.164,0.433c0.375,0.16,0.78,0.384,1.212,0.672
		C240.328,285.243,240.76,286.139,240.76,287.354z"/>
	<path d="M255.688,285.962H245.68c0.064,0.929,0.488,1.677,1.272,2.244c0.784,0.567,1.68,0.853,2.688,0.853
		c1.6,0,2.816-0.504,3.648-1.513l1.536,1.681c-1.376,1.424-3.168,2.137-5.376,2.137c-1.792,0-3.316-0.598-4.572-1.788
		c-1.256-1.192-1.884-2.792-1.884-4.802c0-2.006,0.64-3.604,1.92-4.787c1.28-1.185,2.788-1.775,4.524-1.775s3.212,0.523,4.428,1.572
		c1.216,1.048,1.824,2.492,1.824,4.332V285.962L255.688,285.962z M245.68,283.85H253c0-1.07-0.336-1.896-1.008-2.472
		c-0.672-0.575-1.5-0.864-2.484-0.864c-0.984,0-1.868,0.301-2.652,0.9S245.68,282.827,245.68,283.85z"/>
	<path d="M8.983,303.195h2.832v16.775H8.983V303.195z"/>
	<path d="M28.639,319.971h-3.072l-4.416-12.768h2.784l3.168,9.646l3.168-9.646h2.784l3.168,9.646l3.168-9.646h2.784l-4.416,12.768
		h-3.072l-3.024-8.736L28.639,319.971z"/>
	<path d="M54.775,319.971h-2.448v-1.703c-1.056,1.265-2.472,1.896-4.248,1.896c-1.328,0-2.428-0.376-3.3-1.128
		c-0.872-0.752-1.308-1.756-1.308-3.014c0-1.256,0.464-2.194,1.392-2.818c0.928-0.624,2.184-0.938,3.768-0.938h3.48v-0.479
		c0-1.696-0.944-2.544-2.832-2.544c-1.184,0-2.416,0.432-3.696,1.296l-1.2-1.682c1.552-1.23,3.312-1.848,5.28-1.848
		c1.504,0,2.732,0.381,3.684,1.141c0.952,0.761,1.428,1.955,1.428,3.588V319.971z M52.087,315.219v-1.08h-3.024
		c-1.937,0-2.904,0.608-2.904,1.824c0,0.624,0.24,1.1,0.72,1.428s1.148,0.492,2.004,0.492s1.604-0.24,2.244-0.72
		S52.087,316.036,52.087,315.219z"/>
	<path d="M67.615,316.154c0,1.218-0.44,2.188-1.32,2.916c-0.88,0.729-2.008,1.094-3.384,1.094c-0.928,0-1.892-0.168-2.892-0.504
		c-1-0.338-1.884-0.809-2.652-1.416l1.296-2.09c1.488,1.121,2.928,1.682,4.32,1.682c0.608,0,1.088-0.141,1.44-0.42
		c0.352-0.28,0.528-0.637,0.528-1.068c0-0.64-0.848-1.216-2.544-1.728c-0.128-0.05-0.224-0.08-0.288-0.097
		c-2.656-0.721-3.984-1.92-3.984-3.601c0-1.184,0.459-2.132,1.38-2.844c0.92-0.712,2.116-1.067,3.588-1.067s2.864,0.432,4.176,1.295
		l-1.008,1.992c-1.04-0.688-2.168-1.031-3.384-1.031c-0.64,0-1.16,0.115-1.56,0.348c-0.4,0.232-0.6,0.58-0.6,1.045
		c0,0.416,0.208,0.72,0.624,0.91c0.288,0.146,0.692,0.281,1.212,0.408c0.52,0.129,0.98,0.256,1.38,0.385
		c0.399,0.129,0.788,0.271,1.164,0.433c0.375,0.16,0.78,0.384,1.212,0.672C67.183,314.043,67.615,314.939,67.615,316.154z"/>
	<path d="M73.35,313.059v6.912h-2.688v-12.768h2.688v2.326c0.432-0.782,1.028-1.398,1.788-1.848c0.76-0.447,1.58-0.672,2.46-0.672
		c1.44,0,2.604,0.44,3.492,1.32c0.888,0.88,1.332,2.15,1.332,3.814v7.824h-2.688v-7.008c0-2.354-0.976-3.527-2.928-3.527
		c-0.928,0-1.736,0.309-2.424,0.924C73.694,310.975,73.35,311.875,73.35,313.059z"/>
	<path d="M85.566,305.907c-0.432-0.255-0.648-0.636-0.648-1.14s0.144-0.896,0.432-1.177s0.648-0.42,1.08-0.42
		c0.432,0,0.795,0.136,1.092,0.408c0.296,0.271,0.444,0.628,0.444,1.067s-0.144,0.867-0.432,1.283l-1.416,2.04h-1.464
		L85.566,305.907z"/>
	<path d="M94.278,309.363v6.479c0,0.608,0.16,1.093,0.48,1.452c0.32,0.359,0.768,0.54,1.344,0.54s1.128-0.28,1.656-0.84l1.104,1.896
		c-0.944,0.85-1.988,1.272-3.132,1.272s-2.12-0.396-2.928-1.188c-0.808-0.791-1.212-1.859-1.212-3.203v-6.408h-1.608v-2.159h1.608
		v-4.009h2.688v4.009h3.36v2.159H94.278L94.278,309.363z"/>
	<path d="M116.67,316.154c0,1.218-0.44,2.188-1.32,2.916c-0.88,0.729-2.008,1.094-3.384,1.094c-0.928,0-1.892-0.168-2.892-0.504
		c-1-0.338-1.884-0.809-2.652-1.416l1.296-2.09c1.488,1.121,2.928,1.682,4.32,1.682c0.608,0,1.088-0.141,1.44-0.42
		c0.352-0.28,0.528-0.637,0.528-1.068c0-0.64-0.848-1.216-2.544-1.728c-0.128-0.05-0.224-0.08-0.288-0.097
		c-2.656-0.721-3.984-1.92-3.984-3.601c0-1.184,0.459-2.132,1.38-2.844c0.92-0.712,2.116-1.067,3.588-1.067
		c1.472,0,2.864,0.432,4.176,1.295l-1.008,1.992c-1.04-0.688-2.168-1.031-3.384-1.031c-0.64,0-1.16,0.115-1.56,0.348
		c-0.4,0.232-0.6,0.58-0.6,1.045c0,0.416,0.208,0.72,0.624,0.91c0.288,0.146,0.692,0.281,1.212,0.408
		c0.52,0.129,0.98,0.256,1.38,0.385c0.399,0.129,0.788,0.271,1.164,0.433c0.375,0.16,0.78,0.384,1.212,0.672
		C116.238,314.043,116.67,314.939,116.67,316.154z"/>
	<path d="M122.406,313.059v6.912h-2.688v-12.768h2.688v2.326c0.384-0.782,0.964-1.398,1.74-1.848
		c0.776-0.447,1.612-0.672,2.508-0.672c2.016,0,3.384,0.832,4.104,2.496c1.264-1.664,2.84-2.496,4.728-2.496
		c1.44,0,2.604,0.44,3.492,1.32s1.332,2.15,1.332,3.814v7.824h-2.688v-7.008c0-2.354-0.976-3.527-2.928-3.527
		c-0.912,0-1.708,0.291-2.388,0.875c-0.681,0.584-1.036,1.438-1.068,2.558v7.104h-2.688v-7.009c0-1.216-0.216-2.108-0.648-2.676
		c-0.432-0.568-1.112-0.853-2.04-0.853c-0.928,0-1.736,0.309-2.424,0.924C122.75,310.975,122.406,311.875,122.406,313.059z"/>
	<path d="M154.398,319.971h-2.448v-1.703c-1.056,1.265-2.472,1.896-4.248,1.896c-1.328,0-2.428-0.376-3.3-1.128
		s-1.308-1.756-1.308-3.014c0-1.256,0.464-2.194,1.392-2.818c0.928-0.624,2.184-0.938,3.768-0.938h3.48v-0.479
		c0-1.696-0.944-2.544-2.832-2.544c-1.184,0-2.416,0.432-3.696,1.296l-1.2-1.682c1.552-1.23,3.312-1.848,5.28-1.848
		c1.504,0,2.732,0.381,3.684,1.141c0.952,0.761,1.428,1.955,1.428,3.588V319.971z M151.71,315.219v-1.08h-3.024
		c-1.937,0-2.904,0.608-2.904,1.824c0,0.624,0.24,1.1,0.72,1.428s1.148,0.492,2.004,0.492s1.604-0.24,2.244-0.72
		S151.71,316.036,151.71,315.219z"/>
	<path d="M164.838,309.723c-1.329,0-2.328,0.432-3,1.297c-0.672,0.863-1.008,2.023-1.008,3.479v5.472h-2.688v-12.768h2.688v2.566
		c0.432-0.799,1.02-1.455,1.764-1.968c0.744-0.512,1.532-0.776,2.364-0.792l0.024,2.713
		C164.934,309.723,164.886,309.723,164.838,309.723z"/>
	<path d="M170.981,309.363v6.479c0,0.608,0.16,1.093,0.48,1.452c0.32,0.359,0.768,0.54,1.344,0.54c0.576,0,1.128-0.28,1.656-0.84
		l1.104,1.896c-0.944,0.85-1.988,1.272-3.132,1.272s-2.12-0.396-2.928-1.188c-0.808-0.791-1.212-1.859-1.212-3.203v-6.408h-1.608
		v-2.159h1.608v-4.009h2.688v4.009h3.36v2.159H170.981L170.981,309.363z"/>
	<path d="M196.157,314.764h-10.008c0.064,0.928,0.488,1.676,1.272,2.243c0.784,0.568,1.68,0.853,2.688,0.853
		c1.6,0,2.816-0.504,3.648-1.512l1.536,1.68c-1.376,1.425-3.168,2.137-5.376,2.137c-1.792,0-3.316-0.598-4.572-1.788
		c-1.256-1.192-1.884-2.792-1.884-4.801c0-2.007,0.64-3.604,1.92-4.787c1.28-1.185,2.788-1.776,4.524-1.776
		c1.736,0,3.212,0.524,4.428,1.572s1.824,2.492,1.824,4.332V314.764L196.157,314.764z M186.149,312.65h7.32
		c0-1.07-0.336-1.896-1.008-2.471c-0.672-0.576-1.5-0.865-2.484-0.865s-1.868,0.301-2.652,0.9
		C186.541,310.814,186.149,311.627,186.149,312.65z"/>
	<path d="M201.796,313.059v6.912h-2.688v-12.768h2.688v2.326c0.432-0.782,1.028-1.398,1.788-1.848c0.76-0.447,1.58-0.672,2.46-0.672
		c1.44,0,2.604,0.44,3.492,1.32c0.888,0.88,1.332,2.15,1.332,3.814v7.824h-2.688v-7.008c0-2.354-0.976-3.527-2.928-3.527
		c-0.928,0-1.736,0.309-2.424,0.924C202.141,310.975,201.796,311.875,201.796,313.059z"/>
	<path d="M225.292,318.255c-1.28,1.271-2.88,1.908-4.8,1.908c-1.92,0-3.521-0.638-4.8-1.908c-1.28-1.272-1.92-2.828-1.92-4.668
		s0.64-3.396,1.92-4.668c1.28-1.272,2.88-1.907,4.8-1.907c1.92,0,3.52,0.635,4.8,1.907c1.28,1.271,1.92,2.828,1.92,4.668
		S226.572,316.982,225.292,318.255z M217.601,316.6c0.76,0.775,1.724,1.164,2.892,1.164c1.167,0,2.132-0.389,2.892-1.164
		c0.76-0.775,1.14-1.779,1.14-3.013s-0.38-2.235-1.14-3.013c-0.76-0.775-1.724-1.163-2.892-1.163s-2.132,0.388-2.892,1.163
		c-0.76,0.775-1.14,1.779-1.14,3.013S216.84,315.824,217.601,316.6z"/>
	<path d="M239.188,314.115v-6.911h2.688v12.769h-2.688v-2.328c-0.432,0.783-1.028,1.399-1.788,1.848
		c-0.76,0.447-1.58,0.673-2.46,0.673c-1.44,0-2.604-0.44-3.492-1.32c-0.888-0.88-1.332-2.151-1.332-3.815v-7.823h2.688v7.008
		c0,2.353,0.976,3.527,2.928,3.527c0.928,0,1.736-0.308,2.424-0.925C238.844,316.2,239.188,315.299,239.188,314.115z"/>
	<path d="M257.572,307.204v11.136c0,2.256-0.612,3.948-1.836,5.076c-1.224,1.128-2.796,1.691-4.716,1.691s-3.656-0.601-5.208-1.801
		l1.272-2.039c1.248,0.943,2.508,1.416,3.78,1.416s2.28-0.328,3.024-0.984c0.744-0.656,1.116-1.703,1.116-3.145v-1.632
		c-0.4,0.752-0.972,1.353-1.716,1.8c-0.744,0.448-1.58,0.672-2.508,0.672c-1.696,0-3.088-0.592-4.176-1.774
		c-1.088-1.185-1.632-2.656-1.632-4.416c0-1.761,0.544-3.231,1.632-4.416s2.476-1.776,4.164-1.776s3.06,0.696,4.116,2.088v-1.896
		H257.572z M247.612,313.096c0,1.047,0.324,1.951,0.972,2.711s1.52,1.141,2.616,1.141c1.096,0,1.984-0.367,2.664-1.104
		c0.68-0.735,1.02-1.651,1.02-2.747c0-1.097-0.344-2.023-1.032-2.785c-0.688-0.76-1.576-1.14-2.664-1.14s-1.956,0.392-2.604,1.177
		C247.936,311.131,247.612,312.047,247.612,313.096z"/>
	<path d="M264.148,313.059v6.912h-2.688v-17.783h2.688v7.344c0.384-0.783,0.964-1.399,1.74-1.848
		c0.776-0.447,1.612-0.673,2.508-0.673c1.44,0,2.604,0.44,3.492,1.32c0.888,0.88,1.332,2.151,1.332,3.815v7.824h-2.688v-7.009
		c0-2.353-0.976-3.528-2.928-3.528c-0.928,0-1.736,0.31-2.424,0.924C264.492,310.975,264.148,311.875,264.148,313.059z"/>
	<path d="M277.12,319.635c-0.344-0.352-0.516-0.775-0.516-1.271c0-0.495,0.172-0.915,0.516-1.26c0.344-0.345,0.764-0.517,1.26-0.517
		s0.92,0.172,1.272,0.517s0.528,0.765,0.528,1.26c0,0.496-0.176,0.921-0.528,1.271c-0.352,0.352-0.776,0.528-1.272,0.528
		S277.464,319.986,277.12,319.635z"/>
	<path d="M283.492,305.907c-0.432-0.255-0.648-0.636-0.648-1.14s0.144-0.896,0.432-1.177s0.648-0.42,1.08-0.42
		s0.795,0.136,1.092,0.408c0.296,0.271,0.444,0.628,0.444,1.067s-0.144,0.867-0.432,1.283l-1.416,2.04h-1.464L283.492,305.907z
		 M287.14,305.907c-0.432-0.255-0.648-0.636-0.648-1.14s0.144-0.896,0.432-1.177c0.288-0.28,0.648-0.42,1.08-0.42
		c0.432,0,0.795,0.136,1.092,0.408c0.296,0.271,0.444,0.628,0.444,1.067s-0.144,0.867-0.432,1.283l-1.416,2.04h-1.464
		L287.14,305.907z"/>
</g>
<g enable-background="new    ">
	<path d="M628.917,225.027h3.768v5.951c-1.663,1.856-3.969,2.785-6.911,2.785c-2.465,0-4.532-0.816-6.204-2.449
		c-1.672-1.631-2.509-3.691-2.509-6.18s0.854-4.564,2.557-6.229c1.704-1.664,3.76-2.496,6.168-2.496s4.5,0.792,6.275,2.376
		l-1.943,2.809c-0.752-0.655-1.443-1.108-2.076-1.355c-0.632-0.248-1.316-0.372-2.051-0.372c-1.425,0-2.625,0.484-3.602,1.451
		c-0.976,0.969-1.464,2.244-1.464,3.828s0.468,2.854,1.404,3.805c0.936,0.951,2.051,1.428,3.348,1.428
		c1.296,0,2.376-0.247,3.24-0.743V225.027z"/>
	<path d="M642.452,223.827c-1.072,0-1.871,0.381-2.399,1.141c-0.527,0.761-0.792,1.765-0.792,3.013v5.592h-3.6V220.66h3.6v1.704
		c0.464-0.528,1.044-0.976,1.74-1.345c0.695-0.367,1.404-0.561,2.123-0.576l0.024,3.385L642.452,223.827L642.452,223.827z"/>
	<path d="M658.245,227.115c0,1.871-0.648,3.447-1.945,4.729c-1.295,1.28-2.924,1.92-4.883,1.92c-1.961,0-3.588-0.64-4.885-1.92
		c-1.296-1.279-1.943-2.855-1.943-4.729s0.647-3.452,1.943-4.74c1.297-1.287,2.924-1.932,4.885-1.932
		c1.959,0,3.588,0.645,4.883,1.932C657.596,223.663,658.245,225.243,658.245,227.115z M648.211,227.115
		c0,1.056,0.301,1.916,0.9,2.58c0.599,0.664,1.367,0.996,2.305,0.996c0.936,0,1.703-0.332,2.303-0.996
		c0.602-0.664,0.9-1.524,0.9-2.58c0-1.057-0.3-1.92-0.9-2.592c-0.6-0.672-1.367-1.008-2.303-1.008c-0.938,0-1.705,0.336-2.305,1.008
		C648.511,225.195,648.211,226.059,648.211,227.115z"/>
	<path d="M667.387,233.57h-3.719l-4.393-12.911h3.721l2.52,7.8l2.521-7.8h3.479l2.521,7.8l2.52-7.8h3.744l-4.392,12.911h-3.743
		l-2.377-7.031L667.387,233.57z"/>
	<path d="M686.612,223.25v5.784c0,0.496,0.128,0.885,0.384,1.164c0.256,0.28,0.56,0.42,0.912,0.42c0.672,0,1.238-0.304,1.704-0.912
		l1.344,2.521c-1.12,1.023-2.3,1.537-3.539,1.537c-1.24,0-2.289-0.408-3.146-1.226c-0.855-0.815-1.283-1.929-1.283-3.336v-5.952
		h-1.514v-2.592h1.514v-3.864h3.624v3.864h3.12v2.592H686.612z"/>
	<path d="M696.475,226.611v6.959h-3.6v-17.807h3.6v6.336c1.088-1.104,2.31-1.656,3.66-1.656c1.352,0,2.492,0.479,3.42,1.438
		c0.928,0.961,1.394,2.241,1.394,3.841v7.848h-3.602v-7.055c0-1.984-0.728-2.978-2.184-2.978c-0.72,0-1.35,0.261-1.884,0.78
		C696.743,224.839,696.475,225.604,696.475,226.611z"/>
	<path d="M729.93,223.011l-4.535,9.169h-2.231l-4.512-9.169v10.56h-3.744v-16.775h5.063l4.32,9.217l4.344-9.217h5.039v16.775h-3.744
		V223.011z"/>
	<path d="M737.743,219.016c-0.408-0.408-0.611-0.908-0.611-1.5c0-0.593,0.203-1.094,0.611-1.5c0.408-0.408,0.908-0.613,1.5-0.613
		s1.092,0.205,1.5,0.613c0.408,0.406,0.612,0.907,0.612,1.5c0,0.592-0.204,1.092-0.612,1.5c-0.408,0.406-0.908,0.61-1.5,0.61
		S738.151,219.422,737.743,219.016z M741.043,233.57h-3.601v-12.911h3.601V233.57z"/>
	<path d="M748.051,226.371v7.199h-3.601v-12.911h3.601v1.44c1.088-1.104,2.312-1.656,3.672-1.656c1.359,0,2.499,0.479,3.42,1.438
		c0.92,0.961,1.38,2.241,1.38,3.841v7.848h-3.601v-7.295c0-1.983-0.729-2.978-2.184-2.978c-0.722,0-1.349,0.261-1.885,0.78
		C748.319,224.6,748.051,225.363,748.051,226.371z"/>
	<path d="M764.958,233.764c-1.528,0-2.892-0.648-4.092-1.945c-1.2-1.295-1.8-2.903-1.8-4.823s0.584-3.492,1.752-4.716
		c1.168-1.225,2.535-1.836,4.104-1.836c1.569,0,2.849,0.552,3.84,1.656v-6.336h3.601v17.807h-3.601v-1.703
		C767.754,233.131,766.487,233.764,764.958,233.764z M762.69,227.139c0,1.041,0.312,1.893,0.937,2.557s1.354,0.996,2.186,0.996
		c0.83,0,1.538-0.332,2.122-0.996s0.878-1.521,0.878-2.568s-0.294-1.92-0.878-2.615s-1.3-1.044-2.146-1.044
		c-0.849,0-1.576,0.353-2.185,1.056S762.69,226.1,762.69,227.139z"/>
	<path d="M785.491,229.551c0,1.271-0.469,2.292-1.404,3.061c-0.935,0.768-2.124,1.152-3.563,1.152c-0.959,0-1.959-0.174-3-0.518
		c-1.04-0.344-1.977-0.852-2.809-1.523l1.584-2.256c1.345,1.04,2.776,1.561,4.296,1.561c0.464,0,0.832-0.092,1.104-0.276
		c0.271-0.185,0.408-0.428,0.408-0.731c0-0.303-0.188-0.584-0.563-0.84s-0.921-0.496-1.632-0.721
		c-0.713-0.225-1.256-0.416-1.633-0.576c-0.375-0.158-0.803-0.392-1.283-0.695c-0.977-0.607-1.465-1.508-1.465-2.699
		s0.479-2.164,1.439-2.916s2.2-1.129,3.721-1.129s3.039,0.513,4.561,1.537l-1.344,2.398c-1.121-0.768-2.236-1.15-3.349-1.15
		s-1.668,0.304-1.668,0.912c0,0.336,0.177,0.6,0.527,0.791c0.352,0.191,0.936,0.416,1.752,0.672s1.396,0.453,1.74,0.588
		c0.344,0.137,0.756,0.349,1.235,0.637C785.042,227.371,785.491,228.279,785.491,229.551z"/>
	<path d="M799.434,231.699c-1.457,1.376-3.164,2.064-5.124,2.064s-3.579-0.604-4.859-1.812s-1.92-2.828-1.92-4.86
		c0-2.03,0.651-3.647,1.956-4.848c1.304-1.201,2.845-1.8,4.62-1.8c1.774,0,3.282,0.535,4.522,1.607
		c1.24,1.071,1.86,2.544,1.86,4.416v1.92h-9.407c0.111,0.704,0.479,1.28,1.104,1.729c0.625,0.447,1.328,0.672,2.111,0.672
		c1.264,0,2.305-0.424,3.121-1.271L799.434,231.699z M795.979,224.042c-0.496-0.416-1.102-0.624-1.812-0.624
		c-0.713,0-1.365,0.217-1.957,0.648c-0.592,0.431-0.936,1.017-1.031,1.752h5.664C796.762,225.051,796.473,224.459,795.979,224.042z"
		/>
	<path d="M807.234,223.25v5.784c0,0.496,0.128,0.885,0.384,1.164c0.256,0.28,0.561,0.42,0.912,0.42c0.672,0,1.239-0.304,1.704-0.912
		l1.345,2.521c-1.121,1.023-2.301,1.537-3.541,1.537s-2.288-0.408-3.145-1.226c-0.855-0.815-1.283-1.929-1.283-3.336v-5.952h-1.513
		v-2.592h1.513v-3.864h3.624v3.864h3.119v2.592H807.234z"/>
	<path d="M561.201,276.314c0.448,0.287,0.673,0.677,0.673,1.164s-0.146,0.873-0.433,1.151c-0.288,0.28-0.647,0.42-1.08,0.42
		c-0.434,0-0.796-0.136-1.093-0.407c-0.296-0.271-0.443-0.627-0.443-1.067s0.145-0.868,0.432-1.284l1.416-2.04h1.465
		L561.201,276.314z M564.874,276.314c0.447,0.287,0.672,0.677,0.672,1.164s-0.145,0.873-0.433,1.151
		c-0.288,0.28-0.647,0.42-1.08,0.42s-0.796-0.136-1.092-0.407c-0.297-0.271-0.444-0.627-0.444-1.067s0.145-0.868,0.432-1.284
		l1.416-2.04h1.465L564.874,276.314z"/>
	<path d="M569.193,274.395h2.832v16.775h-2.832V274.395z"/>
	<path d="M588.848,291.17h-3.071l-4.416-12.768h2.783l3.169,9.646l3.168-9.646h2.783l3.168,9.646l3.168-9.646h2.784l-4.416,12.768
		h-3.071l-3.024-8.736L588.848,291.17z"/>
	<path d="M615.272,289.455c-1.279,1.271-2.88,1.908-4.8,1.908c-1.921,0-3.521-0.637-4.801-1.908s-1.92-2.828-1.92-4.668
		s0.64-3.396,1.92-4.668c1.279-1.271,2.88-1.908,4.801-1.908c1.92,0,3.521,0.637,4.8,1.908s1.92,2.828,1.92,4.668
		S616.552,288.182,615.272,289.455z M607.581,287.798c0.76,0.776,1.724,1.164,2.893,1.164c1.167,0,2.132-0.388,2.892-1.164
		c0.76-0.774,1.141-1.778,1.141-3.012s-0.381-2.236-1.141-3.013c-0.76-0.775-1.725-1.164-2.892-1.164
		c-1.169,0-2.133,0.389-2.893,1.164s-1.141,1.779-1.141,3.013S606.821,287.023,607.581,287.798z"/>
	<path d="M629.168,285.314v-6.912h2.688v12.769h-2.688v-2.328c-0.433,0.784-1.029,1.4-1.789,1.849
		c-0.76,0.447-1.58,0.672-2.459,0.672c-1.439,0-2.604-0.439-3.492-1.319s-1.332-2.151-1.332-3.815v-7.824h2.688v7.009
		c0,2.353,0.977,3.526,2.928,3.526c0.928,0,1.736-0.308,2.424-0.924C628.824,287.398,629.168,286.499,629.168,285.314z"/>
	<path d="M638.432,291.17h-2.688v-17.809h2.688V291.17z"/>
	<path d="M643.304,289.539c-1.2-1.216-1.8-2.816-1.8-4.8c0-1.984,0.615-3.568,1.848-4.753s2.699-1.775,4.404-1.775
		c1.703,0,3.075,0.721,4.115,2.16v-7.008h2.688v17.808h-2.688v-1.92c-0.992,1.408-2.439,2.112-4.344,2.112
		C645.912,291.363,644.504,290.754,643.304,289.539z M644.192,284.846c0,1.225,0.393,2.221,1.176,2.988
		c0.784,0.768,1.704,1.152,2.76,1.152c1.058,0,1.953-0.389,2.688-1.164c0.734-0.776,1.104-1.772,1.104-2.988
		s-0.369-2.232-1.104-3.048c-0.735-0.815-1.641-1.226-2.712-1.226c-1.072,0-1.992,0.408-2.761,1.226
		C644.577,282.602,644.192,283.623,644.192,284.846z"/>
	<path d="M667.711,284.258v6.912h-2.688v-17.784h2.688v7.345c0.384-0.783,0.963-1.399,1.74-1.849
		c0.774-0.446,1.611-0.672,2.508-0.672c1.439,0,2.604,0.44,3.492,1.32c0.887,0.88,1.332,2.151,1.332,3.815v7.823h-2.688v-7.008
		c0-2.353-0.976-3.528-2.929-3.528c-0.928,0-1.736,0.309-2.424,0.924C668.055,282.174,667.711,283.075,667.711,284.258z"/>
	<path d="M690.872,291.17h-2.449v-1.704c-1.055,1.265-2.471,1.896-4.248,1.896c-1.328,0-2.428-0.375-3.299-1.127
		c-0.873-0.752-1.309-1.756-1.309-3.014c0-1.256,0.464-2.195,1.393-2.818c0.928-0.625,2.185-0.938,3.769-0.938h3.479v-0.479
		c0-1.696-0.945-2.545-2.832-2.545c-1.185,0-2.416,0.433-3.696,1.297l-1.199-1.682c1.552-1.23,3.312-1.848,5.278-1.848
		c1.504,0,2.732,0.38,3.686,1.141c0.952,0.76,1.429,1.955,1.429,3.588L690.872,291.17L690.872,291.17z M688.183,286.418v-1.08
		h-3.023c-1.937,0-2.904,0.607-2.904,1.824c0,0.624,0.24,1.1,0.721,1.428c0.481,0.328,1.148,0.492,2.005,0.492
		c0.855,0,1.604-0.24,2.243-0.721C687.863,287.882,688.183,287.234,688.183,286.418z"/>
	<path d="M697.856,291.17l-5.138-12.768h2.784l3.888,9.646l3.89-9.646h2.782l-5.136,12.768H697.856z"/>
	<path d="M720.079,285.962h-10.008c0.063,0.929,0.487,1.677,1.271,2.244c0.784,0.567,1.682,0.853,2.688,0.853
		c1.601,0,2.814-0.504,3.646-1.513l1.537,1.681c-1.377,1.424-3.168,2.137-5.377,2.137c-1.791,0-3.315-0.598-4.571-1.788
		c-1.257-1.192-1.884-2.792-1.884-4.802c0-2.006,0.639-3.604,1.92-4.787c1.279-1.185,2.787-1.775,4.523-1.775
		c1.735,0,3.212,0.523,4.428,1.572c1.217,1.048,1.824,2.492,1.824,4.332v1.847H720.079z M710.071,283.85h7.319
		c0-1.07-0.336-1.896-1.008-2.472c-0.672-0.575-1.5-0.864-2.483-0.864c-0.984,0-1.868,0.301-2.652,0.9
		S710.071,282.827,710.071,283.85z"/>
	<path d="M741.415,278.402v11.137c0,2.256-0.611,3.947-1.836,5.076c-1.226,1.128-2.796,1.691-4.716,1.691
		c-1.921,0-3.656-0.601-5.208-1.801l1.271-2.04c1.248,0.944,2.508,1.416,3.78,1.416s2.28-0.327,3.024-0.983
		c0.743-0.656,1.114-1.703,1.114-3.145v-1.632c-0.399,0.752-0.972,1.353-1.716,1.8c-0.743,0.448-1.58,0.672-2.508,0.672
		c-1.696,0-3.088-0.592-4.176-1.775c-1.09-1.185-1.633-2.655-1.633-4.416c0-1.76,0.543-3.231,1.633-4.416
		c1.088-1.185,2.476-1.775,4.164-1.775c1.688,0,3.06,0.696,4.115,2.088v-1.896H741.415z M731.455,284.294
		c0,1.048,0.324,1.952,0.972,2.712c0.648,0.76,1.521,1.141,2.616,1.141s1.983-0.367,2.664-1.104c0.68-0.735,1.021-1.651,1.021-2.748
		c0-1.096-0.346-2.022-1.032-2.784c-0.688-0.76-1.576-1.14-2.664-1.14c-1.089,0-1.956,0.392-2.604,1.176
		C731.779,282.331,731.455,283.247,731.455,284.294z"/>
	<path d="M755.983,289.455c-1.281,1.271-2.882,1.908-4.802,1.908s-3.52-0.637-4.8-1.908s-1.92-2.828-1.92-4.668
		s0.64-3.396,1.92-4.668s2.88-1.908,4.8-1.908s3.521,0.637,4.802,1.908c1.278,1.271,1.92,2.828,1.92,4.668
		S757.262,288.182,755.983,289.455z M748.291,287.798c0.76,0.776,1.724,1.164,2.892,1.164c1.169,0,2.134-0.388,2.894-1.164
		c0.76-0.774,1.14-1.778,1.14-3.012s-0.38-2.236-1.14-3.013c-0.76-0.775-1.725-1.164-2.894-1.164c-1.168,0-2.132,0.389-2.892,1.164
		c-0.761,0.775-1.14,1.779-1.14,3.013S747.53,287.023,748.291,287.798z"/>
	<path d="M764.071,280.562v6.479c0,0.608,0.159,1.092,0.479,1.452c0.319,0.359,0.77,0.54,1.345,0.54s1.127-0.28,1.655-0.841
		l1.104,1.896c-0.945,0.85-1.988,1.271-3.133,1.271s-2.119-0.396-2.929-1.188c-0.809-0.792-1.212-1.859-1.212-3.203v-6.408h-1.607
		v-2.159h1.607v-4.009h2.688v4.009h3.358v2.159H764.071L764.071,280.562z"/>
	<path d="M774.102,280.562v6.479c0,0.608,0.16,1.092,0.48,1.452c0.319,0.359,0.768,0.54,1.344,0.54s1.128-0.28,1.656-0.841
		l1.104,1.896c-0.943,0.85-1.987,1.271-3.132,1.271c-1.144,0-2.12-0.396-2.929-1.188c-0.808-0.792-1.211-1.859-1.211-3.203v-6.408
		h-1.608v-2.159h1.608v-4.009h2.688v4.009h3.36v2.159H774.102L774.102,280.562z"/>
	<path d="M792.702,285.962h-10.008c0.063,0.929,0.487,1.677,1.271,2.244c0.784,0.567,1.682,0.853,2.688,0.853
		c1.601,0,2.814-0.504,3.646-1.513l1.537,1.681c-1.377,1.424-3.168,2.137-5.377,2.137c-1.791,0-3.315-0.598-4.571-1.788
		c-1.257-1.192-1.884-2.792-1.884-4.802c0-2.006,0.639-3.604,1.92-4.787c1.279-1.185,2.787-1.775,4.523-1.775
		c1.735,0,3.212,0.523,4.428,1.572c1.217,1.048,1.824,2.492,1.824,4.332v1.847H792.702z M782.694,283.85h7.319
		c0-1.07-0.336-1.896-1.008-2.472c-0.672-0.575-1.5-0.864-2.484-0.864c-0.983,0-1.867,0.301-2.651,0.9
		S782.694,282.827,782.694,283.85z"/>
	<path d="M798.342,284.258v6.912h-2.688v-12.768h2.688v2.326c0.433-0.783,1.027-1.398,1.787-1.848
		c0.76-0.447,1.58-0.672,2.461-0.672c1.439,0,2.604,0.439,3.492,1.32c0.887,0.88,1.332,2.15,1.332,3.814v7.824h-2.688v-7.008
		c0-2.354-0.976-3.528-2.929-3.528c-0.928,0-1.736,0.31-2.424,0.925C798.686,282.174,798.342,283.075,798.342,284.258z"/>
	<path d="M828.078,291.17h-2.448v-1.704c-1.056,1.265-2.472,1.896-4.248,1.896c-1.328,0-2.428-0.375-3.3-1.127
		s-1.308-1.756-1.308-3.014c0-1.256,0.463-2.195,1.392-2.818c0.928-0.625,2.186-0.938,3.77-0.938h3.479v-0.479
		c0-1.696-0.944-2.545-2.832-2.545c-1.185,0-2.416,0.433-3.696,1.297l-1.198-1.682c1.551-1.23,3.312-1.848,5.278-1.848
		c1.504,0,2.732,0.38,3.685,1.141c0.952,0.76,1.429,1.955,1.429,3.588L828.078,291.17L828.078,291.17z M825.389,286.418v-1.08
		h-3.022c-1.938,0-2.904,0.607-2.904,1.824c0,0.624,0.24,1.1,0.721,1.428c0.479,0.328,1.147,0.492,2.005,0.492
		c0.854,0,1.604-0.24,2.243-0.721C825.069,287.882,825.389,287.234,825.389,286.418z"/>
	<path d="M834.509,284.258v6.912h-2.688v-12.768h2.688v2.326c0.434-0.783,1.028-1.398,1.788-1.848c0.76-0.447,1.58-0.672,2.46-0.672
		c1.44,0,2.604,0.439,3.492,1.32c0.888,0.88,1.332,2.15,1.332,3.814v7.824h-2.688v-7.008c0-2.354-0.976-3.528-2.928-3.528
		c-0.928,0-1.736,0.31-2.424,0.925C834.854,282.174,834.509,283.075,834.509,284.258z"/>
	<path d="M856.661,287.354l-1.68,3.816h-3.023l7.392-16.775h3.024l7.392,16.775h-3.023l-1.68-3.816H856.661z M863.909,284.739
		l-3.048-6.912l-3.048,6.912H863.909z"/>
	<path d="M598.161,304.66c-0.336-0.337-0.504-0.736-0.504-1.2s0.168-0.864,0.504-1.2s0.736-0.504,1.2-0.504s0.863,0.168,1.199,0.504
		c0.337,0.336,0.505,0.736,0.505,1.2s-0.168,0.863-0.505,1.2c-0.336,0.336-0.735,0.504-1.199,0.504S598.497,304.996,598.161,304.66z
		 M600.68,319.971h-2.688v-12.768h2.688V319.971z"/>
	<path d="M607.88,306.146v1.058h3.36v2.159h-3.36v10.607h-2.688v-10.607h-1.607v-2.159h1.607v-0.983
		c0-1.345,0.403-2.412,1.213-3.205c0.808-0.791,1.783-1.188,2.928-1.188c1.144,0,2.188,0.424,3.132,1.271l-1.104,1.896
		c-0.527-0.562-1.08-0.841-1.655-0.841c-0.576,0-1.024,0.181-1.345,0.539C608.04,305.055,607.88,305.54,607.88,306.146z"/>
	<path d="M620.792,303.195h2.832v16.775h-2.832V303.195z"/>
	<path d="M627.704,305.907c-0.433-0.255-0.648-0.636-0.648-1.14s0.146-0.896,0.434-1.177s0.646-0.42,1.08-0.42
		c0.432,0,0.796,0.136,1.092,0.408c0.296,0.271,0.443,0.628,0.443,1.067s-0.145,0.867-0.432,1.283l-1.416,2.04h-1.465
		L627.704,305.907z"/>
	<path d="M634.088,318.339c-1.201-1.216-1.801-2.815-1.801-4.8s0.615-3.568,1.848-4.752c1.232-1.186,2.7-1.776,4.404-1.776
		s3.076,0.72,4.116,2.16v-7.008h2.688v17.808h-2.688v-1.92c-0.992,1.408-2.44,2.112-4.345,2.112
		C636.696,320.164,635.288,319.555,634.088,318.339z M634.975,313.646c0,1.226,0.394,2.222,1.178,2.988
		c0.783,0.768,1.703,1.152,2.76,1.152c1.056,0,1.952-0.389,2.688-1.164s1.104-1.771,1.104-2.988c0-1.216-0.368-2.232-1.104-3.048
		c-0.735-0.815-1.641-1.226-2.713-1.226s-1.992,0.408-2.76,1.226C635.36,311.402,634.975,312.423,634.975,313.646z"/>
	<path d="M664.903,316.154c0,1.218-0.439,2.188-1.319,2.916c-0.88,0.729-2.009,1.094-3.384,1.094c-0.929,0-1.894-0.168-2.894-0.504
		c-1-0.338-1.884-0.809-2.651-1.416l1.297-2.09c1.488,1.121,2.928,1.682,4.32,1.682c0.606,0,1.088-0.141,1.438-0.42
		c0.352-0.28,0.527-0.637,0.527-1.068c0-0.64-0.849-1.216-2.543-1.728c-0.129-0.05-0.226-0.08-0.289-0.097
		c-2.656-0.721-3.983-1.92-3.983-3.601c0-1.184,0.46-2.132,1.38-2.844s2.115-1.067,3.588-1.067c1.474,0,2.864,0.432,4.177,1.295
		l-1.008,1.992c-1.04-0.688-2.169-1.031-3.385-1.031c-0.64,0-1.159,0.115-1.56,0.348s-0.602,0.58-0.602,1.045
		c0,0.416,0.209,0.72,0.625,0.91c0.287,0.146,0.69,0.281,1.212,0.408c0.521,0.129,0.979,0.256,1.38,0.385
		c0.399,0.129,0.788,0.271,1.164,0.433s0.779,0.384,1.213,0.672C664.471,314.043,664.903,314.939,664.903,316.154z"/>
	<path d="M671.263,309.363v6.479c0,0.608,0.159,1.093,0.479,1.452s0.769,0.54,1.345,0.54c0.575,0,1.128-0.28,1.655-0.84l1.104,1.896
		c-0.943,0.85-1.987,1.272-3.132,1.272s-2.12-0.396-2.928-1.188c-0.81-0.791-1.213-1.859-1.213-3.203v-6.408h-1.607v-2.159h1.607
		v-4.009h2.688v4.009h3.36v2.159H671.263L671.263,309.363z"/>
	<path d="M686.911,314.115v-6.911h2.688v12.769h-2.688v-2.328c-0.433,0.783-1.027,1.399-1.787,1.848
		c-0.761,0.447-1.58,0.673-2.461,0.673c-1.439,0-2.604-0.44-3.492-1.32c-0.887-0.88-1.332-2.151-1.332-3.815v-7.823h2.688v7.008
		c0,2.353,0.976,3.527,2.929,3.527c0.928,0,1.735-0.308,2.424-0.925C686.567,316.2,686.911,315.299,686.911,314.115z"/>
	<path d="M694.471,318.339c-1.199-1.216-1.801-2.815-1.801-4.8s0.616-3.568,1.849-4.752c1.231-1.186,2.7-1.776,4.403-1.776
		c1.705,0,3.076,0.72,4.117,2.16v-7.008h2.688v17.808h-2.688v-1.92c-0.992,1.408-2.441,2.112-4.345,2.112
		C697.079,320.164,695.67,319.555,694.471,318.339z M695.359,313.646c0,1.226,0.392,2.222,1.177,2.988
		c0.783,0.768,1.703,1.152,2.76,1.152c1.056,0,1.951-0.389,2.688-1.164c0.736-0.775,1.104-1.771,1.104-2.988
		c0-1.216-0.367-2.232-1.104-3.048s-1.642-1.226-2.712-1.226c-1.072,0-1.992,0.408-2.762,1.226
		C695.743,311.402,695.359,312.423,695.359,313.646z"/>
	<path d="M709.783,304.66c-0.336-0.337-0.504-0.736-0.504-1.2s0.168-0.864,0.504-1.2c0.337-0.336,0.734-0.504,1.2-0.504
		c0.464,0,0.862,0.168,1.199,0.504s0.505,0.736,0.505,1.2s-0.168,0.863-0.505,1.2c-0.337,0.336-0.735,0.504-1.199,0.504
		C710.518,305.164,710.12,304.996,709.783,304.66z M712.303,319.971h-2.688v-12.768h2.688V319.971z"/>
	<path d="M728.071,314.764h-10.009c0.063,0.928,0.487,1.676,1.271,2.243c0.783,0.568,1.68,0.853,2.688,0.853
		c1.602,0,2.816-0.504,3.648-1.512l1.536,1.68c-1.376,1.425-3.168,2.137-5.376,2.137c-1.792,0-3.316-0.598-4.572-1.788
		c-1.256-1.192-1.884-2.792-1.884-4.801c0-2.007,0.64-3.604,1.92-4.787c1.28-1.185,2.788-1.776,4.524-1.776
		c1.735,0,3.211,0.524,4.428,1.572c1.216,1.048,1.824,2.492,1.824,4.332L728.071,314.764L728.071,314.764z M718.062,312.65h7.32
		c0-1.07-0.337-1.896-1.009-2.471c-0.672-0.576-1.5-0.865-2.483-0.865s-1.868,0.301-2.651,0.9
		C718.455,310.814,718.062,311.627,718.062,312.65z"/>
	<path d="M732.006,318.339c-1.199-1.216-1.8-2.815-1.8-4.8s0.616-3.568,1.849-4.752c1.231-1.186,2.699-1.776,4.403-1.776
		s3.075,0.72,4.116,2.16v-7.008h2.688v17.808h-2.688v-1.92c-0.992,1.408-2.44,2.112-4.344,2.112
		C734.614,320.164,733.207,319.555,732.006,318.339z M732.895,313.646c0,1.226,0.393,2.222,1.177,2.988
		c0.783,0.768,1.703,1.152,2.76,1.152s1.952-0.389,2.688-1.164c0.735-0.775,1.104-1.771,1.104-2.988
		c0-1.216-0.368-2.232-1.104-3.048s-1.641-1.226-2.712-1.226s-1.991,0.408-2.761,1.226
		C733.279,311.402,732.895,312.423,732.895,313.646z"/>
	<path d="M756.415,313.059v6.912h-2.688v-12.768h2.688v2.326c0.384-0.782,0.963-1.398,1.74-1.848
		c0.774-0.447,1.61-0.672,2.508-0.672c2.016,0,3.384,0.832,4.104,2.496c1.265-1.664,2.841-2.496,4.729-2.496
		c1.438,0,2.604,0.44,3.492,1.32c0.887,0.88,1.332,2.15,1.332,3.814v7.824h-2.688v-7.008c0-2.354-0.976-3.527-2.929-3.527
		c-0.912,0-1.707,0.291-2.387,0.875c-0.683,0.584-1.037,1.438-1.068,2.558v7.104h-2.688v-7.009c0-1.216-0.216-2.108-0.646-2.676
		c-0.433-0.568-1.113-0.853-2.041-0.853s-1.736,0.309-2.424,0.924C756.758,310.975,756.415,311.875,756.415,313.059z"/>
	<path d="M788.743,318.255c-1.281,1.271-2.881,1.908-4.801,1.908c-1.921,0-3.521-0.638-4.801-1.908
		c-1.279-1.272-1.92-2.828-1.92-4.668s0.641-3.396,1.92-4.668c1.28-1.272,2.88-1.907,4.801-1.907c1.92,0,3.52,0.635,4.801,1.907
		c1.278,1.271,1.92,2.828,1.92,4.668S790.021,316.982,788.743,318.255z M781.05,316.6c0.76,0.775,1.725,1.164,2.893,1.164
		s2.133-0.389,2.893-1.164s1.14-1.779,1.14-3.013s-0.38-2.235-1.14-3.013c-0.76-0.775-1.725-1.163-2.893-1.163
		s-2.133,0.388-2.893,1.163c-0.761,0.775-1.14,1.779-1.14,3.013S780.29,315.824,781.05,316.6z"/>
	<path d="M800.406,309.723c-1.329,0-2.328,0.432-3,1.297c-0.673,0.863-1.009,2.023-1.009,3.479v5.472h-2.688v-12.768h2.688v2.566
		c0.433-0.799,1.021-1.455,1.765-1.968c0.744-0.512,1.532-0.776,2.364-0.792l0.022,2.713
		C800.501,309.723,800.454,309.723,800.406,309.723z"/>
	<path d="M815.118,314.764H805.11c0.062,0.928,0.486,1.676,1.271,2.243c0.783,0.568,1.68,0.853,2.688,0.853
		c1.601,0,2.815-0.504,3.647-1.512l1.536,1.68c-1.376,1.425-3.168,2.137-5.376,2.137c-1.792,0-3.316-0.598-4.572-1.788
		c-1.256-1.192-1.884-2.792-1.884-4.801c0-2.007,0.64-3.604,1.92-4.787c1.28-1.185,2.788-1.776,4.524-1.776
		c1.735,0,3.211,0.524,4.428,1.572c1.216,1.048,1.824,2.492,1.824,4.332L815.118,314.764L815.118,314.764z M805.11,312.65h7.319
		c0-1.07-0.337-1.896-1.009-2.471c-0.672-0.576-1.5-0.865-2.482-0.865c-0.984,0-1.869,0.301-2.652,0.9
		C805.501,310.814,805.11,311.627,805.11,312.65z"/>
	<path d="M818.225,319.635c-0.344-0.352-0.516-0.775-0.516-1.271c0-0.495,0.172-0.915,0.516-1.26
		c0.345-0.345,0.765-0.517,1.261-0.517s0.92,0.172,1.271,0.517c0.354,0.345,0.528,0.765,0.528,1.26c0,0.496-0.176,0.921-0.528,1.271
		c-0.352,0.352-0.776,0.528-1.271,0.528C818.989,320.163,818.569,319.986,818.225,319.635z"/>
	<path d="M824.598,305.907c-0.433-0.255-0.647-0.636-0.647-1.14s0.145-0.896,0.432-1.177c0.289-0.28,0.648-0.42,1.08-0.42
		c0.433,0,0.796,0.136,1.092,0.408c0.297,0.271,0.444,0.628,0.444,1.067s-0.145,0.867-0.432,1.283l-1.416,2.04h-1.465
		L824.598,305.907z M828.246,305.907c-0.434-0.255-0.647-0.636-0.647-1.14s0.145-0.896,0.433-1.177s0.647-0.42,1.08-0.42
		c0.432,0,0.795,0.136,1.092,0.408c0.296,0.271,0.443,0.628,0.443,1.067s-0.145,0.867-0.433,1.283l-1.416,2.04h-1.464
		L828.246,305.907z"/>
</g>
<line fill="none" stroke="#D8D8DB" x1="440" y1="0" x2="440" y2="331.121"/>
</svg>
