<?xml version="1.0" encoding="utf-8"?>
<!-- Generator: Adobe Illustrator 14.0.0, SVG Export Plug-In . SVG Version: 6.00 Build 43363)  -->
<!DOCTYPE svg PUBLIC "-//W3C//DTD SVG 1.1//EN" "http://www.w3.org/Graphics/SVG/1.1/DTD/svg11.dtd">
<svg version="1.1" id="Layer_1" xmlns="http://www.w3.org/2000/svg" xmlns:xlink="http://www.w3.org/1999/xlink" x="0px" y="0px"
	 width="1085.895px" height="167.398px" viewBox="0 0 1085.895 167.398" enable-background="new 0 0 1085.895 167.398"
	 xml:space="preserve">
<path fill="#EF4836" d="M175.281,75.665h80.791v-10h-80.791c-9.799,0-17.771,7.971-17.771,17.771
	c0,9.797,7.972,17.771,17.771,17.771h39.413v5.438l24.834-10.439l-24.834-10.438v5.438h-39.413c-4.285,0-7.771-3.483-7.771-7.771
	C167.51,79.151,170.996,75.665,175.281,75.665z"/>
<polygon fill="#EF4836" points="395.316,76.665 699.729,76.665 699.729,66.665 395.316,66.665 395.316,61.222 370.484,71.665 
	395.316,82.106 "/>
<rect x="545.483" y="93.664" fill="#EF4836" width="15" height="10"/>
<rect x="570.483" y="93.664" fill="#EF4836" width="15" height="10"/>
<rect x="645.483" y="93.664" fill="#EF4836" width="15" height="10"/>
<polygon fill="#EF4836" points="669.896,88.222 669.896,93.665 669.483,93.665 669.483,103.664 669.896,103.664 669.896,109.105 
	694.729,98.664 "/>
<rect x="620.483" y="93.664" fill="#EF4836" width="15" height="10"/>
<rect x="520.484" y="93.664" fill="#EF4836" width="15" height="10"/>
<rect x="595.483" y="93.664" fill="#EF4836" width="15" height="10"/>
<rect x="495.484" y="93.664" fill="#EF4836" width="15" height="10"/>
<rect x="470.484" y="93.664" fill="#EF4836" width="15" height="10"/>
<rect x="445.484" y="93.664" fill="#EF4836" width="15" height="10"/>
<polygon fill="#EF4836" points="884.875,67.828 848.463,67.828 848.463,62.385 823.631,72.828 848.463,83.27 848.463,77.828 
	884.875,77.828 "/>
<g>
	<path d="M752.003,113.559l-9.545-53.396h8.441l6.694,41.621l6.75-41.621h8.446l-9.716,53.396H752.003L752.003,113.559z"/>
</g>
<g>
	<path d="M298.532,113.559h-8.054V60.12h11.558l7.506,38.386l7.205-38.386h11.104v53.438h-8.054v-33.58l-6.988,33.58h-6.477
		l-7.799-33.494L298.532,113.559L298.532,113.559z"/>
</g>
<path d="M757.404,146.9c-33.769,0-61.229-27.465-61.229-61.229c0-33.759,27.466-61.225,61.229-61.225
	c33.76,0,61.226,27.465,61.226,61.225C818.63,119.438,791.164,146.9,757.404,146.9L757.404,146.9z M757.404,32.452
	c-29.354,0-53.229,23.876-53.229,53.224c0,29.354,23.877,53.229,53.229,53.229c29.349,0,53.226-23.877,53.226-53.229
	C810.63,56.329,786.753,32.452,757.404,32.452L757.404,32.452z"/>
<path d="M309.404,146.9c-33.76,0-61.225-27.465-61.225-61.229c0-33.759,27.465-61.225,61.225-61.225
	c33.76,0,61.225,27.465,61.225,61.225C370.629,119.438,343.164,146.9,309.404,146.9L309.404,146.9z M309.404,32.452
	c-29.349,0-53.225,23.876-53.225,53.224c0,29.354,23.876,53.229,53.225,53.229c29.349,0,53.225-23.877,53.225-53.229
	C362.629,56.329,338.753,32.452,309.404,32.452L309.404,32.452z"/>
<g>
	<path d="M104.869,99.439c0,2.115-0.819,3.922-2.458,5.422c-1.639,1.5-3.616,2.25-5.933,2.25h-8.39V75.049h8.391
		c2.335,0,4.317,0.75,5.947,2.25c1.629,1.5,2.444,3.305,2.444,5.396L104.869,99.439L104.869,99.439z M93.427,102.33h3.221
		c0.848,0,1.563-0.271,2.147-0.831c0.583-0.554,0.876-1.205,0.876-1.955V82.772c0-0.771-0.297-1.422-0.89-1.975
		c-0.593-0.546-1.304-0.812-2.133-0.812h-3.221V102.33z"/>
	<path d="M108.542,107.111V75.049h7.995c2.109,0,4.012,0.503,5.707,1.514c1.45,0.854,2.486,2.174,3.108,3.963
		c0.339,0.955,0.508,2.09,0.508,3.396c0,2.146-0.631,3.869-1.893,5.165c-0.528,0.545-1.149,0.963-1.865,1.252
		c1.187,0.408,2.193,1.226,3.023,2.435c0.545,0.812,0.951,1.875,1.215,3.17c0.131,0.666,0.197,1.4,0.197,2.227
		c0,2.027-0.424,3.75-1.271,5.165c-0.66,1.106-1.593,1.995-2.797,2.659c-1.356,0.75-2.703,1.125-4.04,1.125L108.542,107.111
		L108.542,107.111L108.542,107.111z M114.305,88.139h2.232c1.657,0,2.769-0.73,3.333-2.199c0.207-0.545,0.311-1.219,0.311-2.021
		c0-1.33-0.358-2.335-1.074-3.018c-0.66-0.631-1.516-0.946-2.571-0.946h-2.232L114.305,88.139L114.305,88.139z M114.305,102.33
		h2.232c1.808,0,3.061-0.844,3.757-2.53c0.245-0.573,0.367-1.237,0.367-1.987c0-1.791-0.377-3.101-1.13-3.912
		c-0.678-0.75-1.677-1.125-2.995-1.125h-2.232L114.305,102.33L114.305,102.33z"/>
</g>
<path d="M967.104,73.129c-0.019-0.129-0.105-0.229-0.231-0.262c-6.701-1.607-13.576-1.832-19.873-0.643
	c-0.898,0.168-1.8,0.399-2.666,0.639c-1.324,0.352-2.572,0.684-3.832,0.793c-2.396,0.203-4.179-0.293-6.078-0.82
	c-0.774-0.217-1.58-0.438-2.429-0.605c-3.021-0.604-6.323-0.934-9.563-0.934c-3.771,0-7.452,0.438-10.639,1.252
	c-0.139,0.035-0.236,0.16-0.236,0.311c0,1.318,0.105,2.438,0.33,3.42c0.109,0.438,0.479,0.601,0.722,0.707
	c0.071,0.033,0.149,0.062,0.188,0.093c0.78,0.639,1.062,2.342,1.312,3.846c0.104,0.625,0.197,1.223,0.33,1.729
	c0.834,3.307,2.062,5.293,3.979,6.44c1.243,0.742,3.085,1.15,5.188,1.15c4.359,0,9.611-1.771,11.527-5.765
	c0.982-1.33,1.978-4.254,3.086-5.553c0.104-0.125,0.5-0.26,1.115-0.26c0.557,0,1.029,0.117,1.195,0.234
	c0.65,1.047,1.066,1.92,1.477,2.764c0.521,1.088,1.008,2.117,1.938,3.316c3.433,4.438,7.726,5.379,10.724,5.379h0.033
	c1.021-0.002,4.496-0.104,6.379-1.324c2.221-1.438,2.753-4.27,3.264-7.006c0.285-1.521,0.58-3.09,1.158-4.457
	c0.03-0.084,0.192-0.129,0.414-0.184c0.312-0.076,0.746-0.188,0.879-0.654C966.956,75.92,967.241,74.116,967.104,73.129
	 M917.847,77.021c-1.221,2.586-1.034,6.097-0.541,8.688c-0.682-2.021-1.188-4.623-1.146-6.27c0.087-3.748,1.598-4.82,4.564-5.393
	C919.597,74.693,918.499,75.635,917.847,77.021 M946.251,76.1c-1.028,1.219-1.66,2.383-1.985,3.736
	c-0.206-1.551-0.146-3.223,0.836-4.146c0.626-0.585,2.146-1.148,3.917-1.589C947.829,74.78,946.858,75.53,946.251,76.1"/>
<circle fill="none" stroke="#000000" stroke-width="6" stroke-miterlimit="10" cx="939.447" cy="77.032" r="34.083"/>
<path d="M955.212,107.143V94.856l-15.868-4l-15.868,4v12.287l-15.396-16.781c4.541,19.525,31.271,34.787,31.271,34.787
	s26.938-15.262,31.48-34.787L955.212,107.143z M951.078,109.002l-11.734,2.102l-11.729-2.102l-0.752-8.479l12.479-0.666
	l12.487,0.666L951.078,109.002z"/>
<path fill="none" stroke="#231F20" stroke-width="6" stroke-miterlimit="10" d="M138.029,54.541v49.711
	c0,5.975-12.086,13.368-31.584,13.368s-31.585-7.396-31.585-13.368V54.541"/>
<path fill="none" stroke="#231F20" stroke-width="6" stroke-miterlimit="10" d="M138.029,54.541
	c0,5.969-12.086,10.812-31.584,10.812S74.86,60.51,74.86,54.541c0-5.968,12.087-10.807,31.585-10.807
	C125.943,43.733,138.029,48.573,138.029,54.541z"/>
<path fill="none" d="M389.005,125.657c4.699-9.805,7.644-20.604,8.41-31.992h-11.634c-0.732,9.41-3.189,18.342-7.024,26.5
	L389.005,125.657z"/>
<path fill="#EF4836" d="M369.94,115.44l8.813,4.725c3.835-8.158,6.291-17.09,7.024-26.5h-10.026
	C375.062,101.376,373.041,108.706,369.94,115.44z"/>
<path fill="#EF4836" d="M389.006,125.657l11.025,5.908c5.629-11.577,9.107-24.383,9.909-37.9h-12.524
	C396.647,105.052,393.704,115.852,389.006,125.657z"/>
<path fill="#EF4836" d="M410.229,137.03l13.229,7.088c7.619-15.333,12.24-32.406,13.081-50.453h-15.016
	C420.701,109.154,416.723,123.818,410.229,137.03z"/>
</svg>
